<?xml version='1.0' encoding='utf-8'?>
<svg xmlns="http://www.w3.org/2000/svg" version="1.1" width="600px" height="976px" viewBox="0 0 600 976"> <g id="layer1"> <g style="fill:rgb(255,255,255); fill-opacity:1.0; stroke-linejoin: miter"> <path d="M269.2097,402.88794C268.97556,402.9037,268.59204,402.94778,268.35693,403.006C267.1505,403.2539,266.47705,403.42932,266.42194,403.513C266.3891,403.55472,266.27127,403.59445,266.15448,403.5917C265.889,403.58548,264.9117,404.02997,264.06012,404.55182C262.59448,405.4311,261.0843,406.85117,260.21448,408.14813C259.3224,409.48712,257.43396,413.43756,257.42047,414.011C257.41824,414.10654,257.37302,414.22238,257.32928,414.27444C257.2747,414.3369,257.13953,414.66312,257.02512,415.01102C256.90005,415.3587,256.7649,415.68488,256.7212,415.73697C256.67722,415.79968,256.63098,415.95798,256.6275,416.10666C256.62375,416.26593,256.54443,416.47653,256.457,416.58072C256.3693,416.69556,256.29095,416.86368,256.28845,416.96988C256.28622,417.06543,256.20914,417.1805,256.11282,417.2101C255.85574,417.29968,254.78375,417.25323,254.38297,417.12695C253.91873,416.98853,253.73572,417.09048,253.42493,417.65692C253.2915,417.90875,253.01855,418.22107,252.83478,418.3549C252.44604,418.622,251.7796,419.4032,251.58884,419.83432C251.46603,420.08643,250.05164,421.4981,249.66339,421.744C249.18866,422.05154,248.28882,422.81662,248.11319,423.05685C247.86072,423.40152,247.5278,423.55307,247.00748,423.54083C246.7951,423.53586,246.40073,423.5903,246.13324,423.66904C245.3205,423.8943,244.65887,424.01685,244.25537,424.00735C243.78815,423.99637,242.0503,424.253,241.6218,424.40228C241.21481,424.54147,240.7381,424.93402,240.34357,425.44534C240.16818,425.67496,239.68799,426.21616,239.26361,426.64178C238.83899,427.07803,238.39264,427.53503,238.27286,427.6597C238.1528,427.795,238.00165,427.89767,237.9273,427.89594C237.86359,427.89444,237.61688,427.9949,237.3805,428.1062C235.81046,428.90863,235.54248,429.00858,235.00092,428.99585C234.27887,428.97885,233.84763,429.24496,232.28555,430.6107C232.00372,430.84845,231.62534,431.1264,231.4317,431.2281C230.5285,431.68497,228.89099,433.54828,227.78598,435.3604C227.27756,436.19846,226.13953,438.5091,226.13477,438.71085C226.13327,438.77454,226.08832,438.87973,226.03397,438.9316C225.96875,438.99377,225.69992,439.58246,225.41849,440.25583C224.92279,441.45538,224.65372,442.05463,224.20752,442.95786C223.96216,443.45145,223.67648,444.30533,223.57928,444.82364C223.51794,445.17282,223.49548,445.2254,222.99316,446.25482C222.8034,446.64346,222.64627,447.001,222.64502,447.0541C222.64377,447.10718,222.51996,447.40176,222.36432,447.69562C222.2084,448.00003,222.08362,448.3371,222.08087,448.45392C222.07813,448.5707,222.0314,448.75024,221.96521,448.85492C221.81006,449.12753,221.5516,449.72705,221.41418,450.1488C221.33487,450.3594,221.11401,450.71548,220.8964,450.93347C220.50388,451.35986,220.41568,451.49588,219.89413,452.43985C219.51663,453.1322,219.40347,454.3301,219.57077,455.80026C219.63312,456.3117,219.67111,457.40692,219.6625,458.2248C219.65054,459.63757,219.65894,459.73343,219.94379,460.27136C220.09583,460.583,220.4671,461.05923,220.75821,461.3317C221.92255,462.42154,221.93265,462.44302,221.98389,462.97543C222.08072,463.8277,221.94238,467.9043,221.8136,468.41125C221.74365,468.67523,221.64648,470.09662,221.59055,471.5721C221.49954,474.08804,221.48468,474.26828,221.26532,474.56064C220.98022,474.9364,220.97748,475.0532,221.23099,475.56915C221.39264,475.92358,221.41776,476.21103,221.38455,477.6233C221.37396,478.52615,221.31226,479.3428,221.24606,479.44748C221.19046,479.55243,221.10468,480.94223,221.05637,482.54538C220.97171,485.24207,220.97586,485.5184,221.17963,486.34128C221.39252,487.22812,221.3623,487.60992,221.048,488.325C220.66675,489.1766,220.40353,489.97787,220.12173,491.11874C219.95709,491.79483,219.92581,495.3852,220.06104,497.7683C220.12689,499.03418,220.11966,499.3421,219.9711,499.7848C219.70816,500.57547,219.69556,502.46634,219.94745,503.50287C220.05328,503.97284,220.18771,504.58157,220.24442,504.88043C220.29077,505.16833,220.5003,505.747,220.69232,506.1659C220.8952,506.57437,221.1482,507.11157,221.25952,507.34793C221.37082,507.5843,221.51324,507.85324,221.58557,507.93997C221.6579,508.02664,221.86179,508.39267,222.04471,508.7476C222.82764,510.24283,223.42532,511.03247,225.2619,512.9031C226.71432,514.39276,227.10736,514.84827,227.10211,515.0712C227.0986,515.2199,227.03177,515.8027,226.94421,516.3637C226.83044,517.13666,226.81473,517.8056,226.86871,519.1243C226.93893,520.65594,226.98557,520.9333,227.20844,521.3954C227.51251,522.01874,227.5285,522.24225,227.26431,523.086C227.11404,523.6031,227.09894,523.79395,227.18552,524.1785C227.25385,524.4351,227.32632,524.968,227.34894,525.36163C227.39642,526.0534,227.41666,526.0964,227.84406,526.44635C228.08401,526.6326,228.43933,526.8853,228.63885,526.98566C228.83835,527.086,229.14206,527.27374,229.30896,527.40515C229.48648,527.5368,229.70624,527.6801,229.81168,527.7145C229.98007,527.78217,229.9852,528.01605,229.92505,530.57513C229.86038,533.3254,229.75671,534.1198,229.41806,534.51556C229.30887,534.6405,229.22104,535.2122,229.08292,536.5689C228.97226,537.6606,229.10895,538.17377,229.64737,538.7708C229.86514,538.999,230.0394,539.26874,230.03717,539.3643C230.03491,539.4599,230.0744,539.5883,230.12625,539.64264C230.17783,539.7076,230.2333,540.0595,230.24582,540.4317C230.27405,541.03796,230.31406,541.14514,230.595,541.3961C230.77203,541.549,231.1878,541.9413,231.53098,542.2575C231.9465,542.66034,232.33365,542.9138,232.76553,543.0727C233.3342,543.2879,234.15198,543.7534,234.28577,543.9372C234.42993,544.1318,235.49219,544.59235,236.02112,544.6898C236.20114,544.7153,236.43326,544.7845,236.54883,544.84033C236.66437,544.8962,237.38495,544.97687,238.13837,545.01575C238.90216,545.06555,239.71805,545.1592,239.97092,545.2501C240.33981,545.3756,240.49911,545.3794,240.9266,545.2726C241.20468,545.1941,241.57834,545.1179,241.74872,545.1007C241.92975,545.0837,242.16486,545.02545,242.28293,544.9751C242.40097,544.92474,242.88031,544.8723,243.34802,544.86206C244.13458,544.84863,244.93597,544.655,246.09454,544.18286C246.66281,543.9625,246.78772,543.1686,246.37921,542.4684C246.24664,542.2315,246.12671,541.91,246.13046,541.7507C246.13394,541.60205,246.07648,541.3351,245.99551,541.16315C245.9143,541.0019,245.77289,540.6904,245.68207,540.48645C245.35898,539.76697,245.2363,539.56226,244.89337,539.2355C244.34256,538.7125,243.95218,538.59705,242.32901,538.4952C240.89673,538.4083,240.84387,538.3965,240.81726,538.1727C240.781,537.90625,240.25146,537.38385,239.99661,537.37787C239.85855,537.37463,239.85043,537.2682,239.92838,536.6644C240.03204,535.87,240.1771,535.5759,240.4744,535.5829C240.99472,535.59515,241.71353,534.84705,241.73788,534.2633C241.75473,533.99805,242.17935,533.5618,242.6412,533.3496C243.07071,533.15784,243.58575,532.49,243.59473,532.10767C243.59796,531.9696,243.6763,531.8015,243.763,531.7291C243.8497,531.6568,243.92703,531.5311,243.92877,531.4568C243.93079,531.3718,243.99597,531.30963,244.07031,531.3114C244.14465,531.3131,244.32864,531.1687,244.49194,531.00256C244.8081,530.6594,245.0321,530.6222,245.44098,530.85486C245.69284,530.9883,245.74619,530.9789,246.12433,530.71155C246.35132,530.5469,246.64127,530.41565,246.7687,530.4186C246.89612,530.42163,247.13199,530.33154,247.28339,530.21826C247.4563,530.0947,247.71313,530.01587,247.96799,530.02185C248.2969,530.04016,248.4542,530.12885,248.78625,530.46606L249.20102,530.90076L250.36908,530.9282L251.52655,530.95544L251.90005,531.33606C252.14917,531.5863,252.41116,531.7412,252.64401,531.77856C252.84528,531.80457,253.50189,531.89435,254.11603,531.98315C255.14331,532.12415,255.2485,532.1692,255.54944,532.47375C255.94324,532.89734,256.37186,533.1943,256.58423,533.1993C256.6798,533.20154,256.89044,533.2809,257.05832,533.36975C257.29956,533.5029,257.4161,533.51636,257.6416,533.4154C257.85623,533.3248,258.00488,533.3283,258.3101,533.45233C258.52072,533.5317,258.7202,533.63196,258.75134,533.66455C258.78244,533.69714,258.9812,533.82935,259.2017,533.9408C259.75775,534.2407,260.1103,534.6102,260.10382,534.88635C260.09607,535.2155,259.48233,536.4654,258.9208,537.3022C258.6676,537.6787,258.3798,538.17126,258.2681,538.4024C258.15668,538.6229,257.91083,539.13776,257.70996,539.54736C257.01865,540.9336,256.87262,541.27014,256.86636,541.5356C256.86288,541.68427,256.81693,541.8319,256.75244,541.8623C256.6986,541.8929,256.6405,542.104,256.63528,542.327C256.63004,542.55,256.54648,542.94116,256.45578,543.18335C256.36508,543.4256,256.28003,543.8805,256.27252,544.19904C256.2653,544.50696,256.20544,544.7924,256.14075,544.8334C256.05457,544.8845,256.02332,545.3087,256.04282,546.2867C256.0571,547.48755,256.03036,547.7207,255.8515,548.099C255.69485,548.4353,255.63351,548.7844,255.61179,549.70825L255.58383,550.8976L256.0808,551.4511C256.3499,551.7549,256.66272,552.0066,256.7583,552.0089C256.85385,552.0111,256.9378,552.0556,256.93683,552.0981C256.93457,552.19366,257.47064,552.44,257.98822,552.56903C258.18872,552.6269,258.54776,552.72034,258.77988,552.78955C259.012,552.85876,259.44684,552.8902,259.7558,552.855C260.22427,552.81287,260.34033,552.8474,260.65338,553.08856C261.3104,553.614,261.76422,553.7415,263.01825,553.72845C263.71982,553.7131,264.41202,553.64435,264.7652,553.5358C265.08603,553.4477,265.54562,553.331,265.7805,553.2834C266.01508,553.2464,266.37836,553.15936,266.58163,553.1004C267.11655,552.94293,268.07175,552.98663,268.42828,553.18634C268.58557,553.27496,268.81744,553.3548,268.9236,553.3573C269.04044,553.36005,269.12436,553.40454,269.12286,553.4682C269.1216,553.5213,269.2898,553.5997,269.49054,553.6469C269.69156,553.6835,269.8597,553.7618,269.85846,553.8149C269.8572,553.868,269.93054,553.9122,270.0155,553.91425C270.22787,553.9192,270.6671,554.2164,271.00928,554.575C271.56897,555.17255,272.7283,555.5717,273.96008,555.60065C274.3742,555.6104,275.03107,555.6896,275.42197,555.78375C276.07684,555.94794,279.00388,556.1761,280.85153,556.21954C281.7966,556.24176,287.0576,556.16345,289.65152,556.0969C290.768,556.05945,291.54517,555.99274,291.62125,555.92017C291.68643,555.8579,291.9213,555.8103,292.1549,555.8158C292.54782,555.8251,293.48776,555.6134,293.85355,555.42017C293.96097,555.36957,294.0894,555.3301,294.1531,555.33154C294.2487,555.33386,295.17587,554.7606,295.39297,554.56384C295.82748,554.1597,295.89978,553.3434,295.53687,552.96295C295.35022,552.76733,295.2804,552.57446,295.28714,552.2877C295.31958,550.9073,294.10187,548.9237,293.0667,548.66565C292.87634,548.62933,292.6978,548.54016,292.6672,548.48627C292.62598,548.4321,292.42523,548.385,292.21283,548.38C291.2253,548.3568,289.48145,547.96515,288.75674,547.60815C288.35797,547.39685,287.75848,547.1384,287.44217,547.0354C287.1261,546.92163,286.6325,546.67633,286.33942,546.48883C286.05698,546.3016,285.73206,546.1134,285.63748,546.06866C285.53204,546.0343,285.4501,545.90485,285.4531,545.77747C285.45782,545.57574,285.5218,545.5666,287.50723,545.6238C288.62216,545.65,289.7361,545.71875,289.9685,545.7773C290.6656,545.95306,296.123,545.6564,296.58533,545.42285C296.7145,545.35156,296.93875,545.3037,297.07678,545.30695C297.29977,545.3122,297.72827,545.1629,298.2442,544.9094C298.34103,544.8585,298.80338,544.62506,299.26575,544.39154C299.72784,544.1687,300.2556,543.86237,300.45,543.72876C300.6338,543.595,300.81705,543.4824,300.85953,543.4834C300.8914,543.4842,300.97757,543.4331,301.05316,543.3817C302.01694,542.60754,302.21655,542.25104,302.8389,540.1832C302.95334,539.8353,303.08035,539.4027,303.12683,539.23376C303.242,538.854,303.54633,537.6606,303.71344,536.8783C303.87857,536.18097,303.89655,535.4164,303.7831,534.8187C303.72537,534.5624,303.6408,534.09296,303.57394,533.7726C303.51773,533.4526,303.4099,533.0675,303.33908,532.9171C303.27887,532.76697,303.13742,532.45557,303.02612,532.2192C302.5424,531.1029,301.53195,529.7935,298.70667,526.5929C298.54126,526.3977,298.05518,525.83386,297.631,525.3457C296.42084,523.9467,292.6857,520.12964,291.4473,519.02747C291.2184,518.8202,290.8234,518.4497,290.56342,518.20984C290.17926,517.829,289.34598,517.1188,288.23074,516.2001C288.11594,516.11237,287.86636,515.8834,287.65796,515.7085C287.1585,515.2611,286.58496,514.8014,286.03143,514.3954C285.6243,514.0883,284.76804,513.45197,283.95398,512.8272C283.7765,512.69556,283.46313,512.4651,283.26465,512.32227C282.49133,511.77286,282.42987,511.6758,282.44482,511.0387C282.45258,510.7095,282.51492,510.31787,282.5826,510.14944C282.6501,509.99167,282.75464,509.61163,282.81448,509.32617C282.95935,508.58585,283.10226,507.9305,283.27603,507.31836C283.75357,505.53403,283.9773,504.6043,283.98456,504.2964C283.98804,504.1477,284.03424,503.98944,284.08884,503.92697C284.19727,503.83392,284.38715,502.98837,284.56076,501.93002C284.61023,501.6337,284.68094,501.33786,284.73578,501.2648C284.78,501.19144,284.87268,500.86426,284.93326,500.54697C285.20032,499.12955,285.27078,498.84433,285.38345,498.57074C285.45117,498.40234,285.5105,498.13812,285.51425,497.97885C285.518,497.81955,285.56445,497.65063,285.61905,497.58817C285.74948,497.46375,286.08337,496.36667,286.09085,496.0481C286.09436,495.89944,286.1297,495.7515,286.1732,495.71005C286.26013,495.62708,286.52457,494.7727,286.6225,494.22253C286.6586,494.04276,286.7278,493.81067,286.78366,493.69507C286.8837,493.5062,286.99002,493.05185,287.24023,491.89963C287.28842,491.6564,287.3579,491.41367,287.40186,491.35095C287.44608,491.27765,287.53976,490.90796,287.60236,490.5057C287.93597,488.51614,288.0423,488.06177,288.31137,487.4625C288.69336,486.579,288.76532,486.23007,288.79303,485.0514C288.80927,484.36118,288.77164,483.70157,288.71066,483.58328C288.6497,483.46497,288.59235,482.74115,288.57822,481.98648C288.5641,481.2318,288.50497,480.5823,288.45264,480.54922C288.41092,480.51636,288.3739,480.28174,288.3799,480.0269C288.3859,479.77203,288.34894,479.5374,288.29657,479.5043C288.24423,479.47122,288.17465,479.2677,288.14752,479.06522C288.1098,478.86246,288.03946,478.69083,287.98636,478.68958C287.92264,478.68808,287.88193,478.61273,287.8839,478.52777C287.88593,478.44284,287.77335,478.25955,287.6277,478.12866C287.48203,477.99774,287.3687,477.8463,287.3702,477.7826C287.3717,477.7189,286.89548,477.1871,286.3143,476.5997C285.4112,475.69662,285.07687,475.45502,284.1954,474.98807C282.66278,474.1977,281.98618,474.0543,279.93552,474.0592C278.93683,474.05698,278.18143,474.10297,278.09473,474.1753C278.00827,474.23703,277.73044,474.30484,277.46423,474.33047C276.77176,474.40982,276.01382,474.56198,275.78833,474.66293C275.5947,474.76462,274.8573,474.94922,274.3451,475.04343C274.08926,475.07993,274.04727,475.05768,274.05176,474.86655C274.0575,474.6223,274.1126,474.5386,274.65677,473.98828C275.31012,473.31305,276.18304,472.3348,276.28262,472.16714C276.33795,472.07285,276.4148,471.96838,276.458,471.9375C276.50122,471.90668,276.6655,471.69803,276.81967,471.4679C277.31473,470.7465,277.76407,470.16205,278.04715,469.87122C278.28677,469.62186,278.68625,468.8982,279.74472,466.80878C279.9115,466.49396,280.2003,465.9589,280.3994,465.6236C280.5988,465.27765,280.7658,464.95224,280.76733,464.88852C280.77255,464.66553,281.49612,463.7157,281.99557,463.25995C282.2885,463.00122,282.5175,462.75162,282.51874,462.69855C282.52,462.64545,282.64,462.51013,282.79144,462.39682C282.94284,462.2835,283.06265,462.15884,283.0639,462.10574C283.0649,462.06326,283.26376,461.7386,283.51648,461.38327C283.94534,460.7665,283.9777,460.74603,284.4237,460.7565C284.67853,460.7625,284.92178,460.81073,284.95215,460.87518C284.98276,460.92902,285.1514,460.9861,285.3319,460.99036C285.5018,460.99435,285.72382,461.04205,285.8285,461.10828C286.05887,461.2518,287.48068,461.7846,287.95602,461.90204C288.8746,462.14673,289.14868,462.23816,289.25238,462.34686C289.3146,462.41205,289.49387,462.4694,289.66376,462.4734C289.82306,462.47714,290.05566,462.52512,290.19244,462.58145C290.32925,462.6378,290.71915,462.77444,291.06732,462.87827C291.41525,462.99268,291.8471,463.15158,292.03653,463.23038C292.21503,463.3196,292.4259,463.3883,292.51086,463.39032C292.59583,463.3923,292.701,463.43726,292.76373,463.48123C292.84692,463.55756,293.2578,463.70532,294.43912,464.07312C294.61838,464.13046,294.9777,464.21326,295.26337,464.26248C295.53873,464.3008,295.79184,464.38116,295.82245,464.43497C295.85303,464.48883,296.02194,464.5353,296.20245,464.53955C296.47855,464.54602,297.72333,464.92593,298.44928,465.22983C299.20682,465.54514,299.66043,465.68332,299.94708,465.69C300.13824,465.6945,300.3921,465.74292,300.5289,465.7993C300.66592,465.845,301.05557,465.99228,301.4035,466.10672C301.7514,466.2211,302.09885,466.35678,302.17194,466.41165C302.30746,466.52106,303.46643,466.48456,304.42633,466.3265C305.61002,466.14185,306.52548,466.06775,307.4814,466.07962C308.01236,466.0921,308.49142,466.05023,308.52454,465.99786C308.5579,465.9349,308.70755,465.89594,308.8456,465.8992C308.98364,465.90244,309.26123,465.8452,309.45438,465.76474C310.17307,465.4735,310.78506,465.20105,311.04343,465.05838C311.1941,464.97693,311.38745,464.88586,311.47314,464.856C311.5591,464.8155,311.88165,464.6531,312.17236,464.48996C312.47394,464.31644,312.78586,464.15375,312.87158,464.1239C312.95728,464.09406,313.41885,463.89243,313.90195,463.68066C314.7503,463.29684,315.35696,462.80112,316.18744,461.82196C316.66815,461.25952,317.28864,460.626,318.32114,459.64093C318.8428,459.14322,319.26868,458.6539,319.2707,458.56894C319.27893,458.2185,321.86932,455.5914,322.75406,455.01724C323.02377,454.84293,323.33694,454.62717,323.45624,454.52374C323.57553,454.4203,323.91022,454.19443,324.212,454.01022C324.50296,453.83646,324.90283,453.54834,325.08762,453.37207C325.48947,452.99902,326.01053,452.07632,326.01926,451.70468C326.02277,451.55603,326.06848,451.41895,326.1223,451.38834C326.17618,451.35776,326.254,451.21082,326.28934,451.06293C326.3353,450.91525,326.63077,450.55035,326.96692,450.26074C327.56393,449.72232,327.99506,449.00998,328.006,448.54276C328.00903,448.4153,328.05472,448.2783,328.10858,448.24768C328.16245,448.21707,328.24374,447.92148,328.29398,447.59332C328.34418,447.2651,328.44235,446.70435,328.52518,446.34503L328.67844,445.70053L329.25336,445.6503C329.57266,445.62592,330.47925,445.47726,331.26877,445.33646C332.46384,445.12018,333.0918,445.0712,334.93008,445.06128C336.7365,445.05066,337.16226,445.01816,337.2075,444.90234C337.34366,444.5337,337.76428,444.26733,338.18903,444.2773C338.60315,444.28705,339.3742,444.02893,339.37793,443.86966C339.3827,443.6679,340.29114,442.98804,341.07553,442.61337C341.83844,442.2488,341.99875,442.21008,342.1765,442.33115C342.2918,442.3976,342.47083,442.46555,342.58765,442.4683C342.69382,442.4708,342.98938,442.55212,343.24225,442.64307C343.8529,442.88055,344.54312,442.89676,344.8773,442.69214C345.01758,442.5998,345.33325,442.27786,345.5635,441.97516C345.80435,441.6727,346.17563,441.24585,346.39325,441.02783C346.62146,440.8101,346.89618,440.4234,347.00812,440.1817C347.29916,439.55106,347.58862,439.441,349.0451,439.40082C351.0012,439.3512,351.97748,438.94916,352.83148,437.8749L353.33566,437.2174L354.21875,437.1638C354.70798,437.14343,362.67224,437.32004,371.93106,437.56958C381.18982,437.81906,389.02594,438.02454,389.34473,438.02142C393.82684,438.0843,400.86627,438.28162,401.61844,438.37366L402.5931,438.4922L402.78015,438.22037C402.92343,438.00058,402.9489,437.8206,402.90927,437.24594L402.85117,436.554L405.3997,436.6139C407.5553,436.66455,407.9699,436.65305,408.07935,436.5175C408.23227,436.34048,408.2746,434.99216,408.1294,434.84C408.07758,434.78568,407.58,434.7102,407.01794,434.66513L405.9894,434.57718L405.7774,434.1047C405.6666,433.84714,405.53378,433.6209,405.49207,433.58804C405.36664,433.5001,404.95465,433.85162,404.9499,434.0534C404.93668,434.61618,405.46835,434.5968,396.8778,434.39484C392.52414,434.29254,384.9967,434.0625,380.14523,433.8953C375.30457,433.71774,363.4131,433.37448,353.7397,433.13644L336.15558,432.70184L335.90646,432.45166C335.626,432.17944,335.30844,432.12946,335.09134,432.32623C334.99326,432.43018,334.10056,432.44104,331.38217,432.37714C328.7697,432.32635,327.6646,432.33224,327.3011,432.42996C326.99115,432.50763,326.41672,432.53665,325.8016,432.4903C324.9316,432.43796,324.75183,432.4019,324.54446,432.18457C324.31586,431.96667,324.18893,431.94247,323.0952,431.91675C321.9059,431.8888,321.48953,431.9746,321.48328,432.24008C321.47705,432.50555,321.11475,432.55017,318.76703,432.53745C316.5045,432.5161,316.41953,432.51413,316.13806,432.2844C315.98178,432.15323,315.8581,431.99094,315.85986,431.91663C315.86234,431.81042,314.90765,431.74548,311.48965,431.61203C305.15277,431.35678,300.321,431.25388,299.99945,431.37384C299.78534,431.44315,299.7194,431.53723,299.71338,431.79208C299.70514,432.1425,299.53375,432.2022,299.1886,431.97098C299.02118,431.86078,298.8189,431.8773,298.1783,432.011C297.22803,432.21176,296.9351,432.4705,296.91962,433.12885C296.91187,433.458,296.85626,433.56296,296.64166,433.65353C296.4915,433.71375,296.37244,433.80658,296.3712,433.85965C296.37018,433.90213,296.3161,433.94336,296.24176,433.94162C296.17807,433.94012,295.878,434.04996,295.57742,434.181C294.69717,434.56403,294.26108,434.58566,293.6633,434.25287C293.38007,434.09747,293.0218,433.97217,292.86252,433.96844C292.70322,433.9647,292.3879,433.81915,292.16867,433.65463C291.6677,433.271,290.8227,433.05988,290.41516,433.2203C290.2544,433.28024,290.01706,433.43405,289.876,433.55823C289.3763,434.0246,288.44562,434.74643,287.90643,435.08435C287.60464,435.26852,287.2376,435.51486,287.08618,435.62817C286.65347,435.958,286.44232,435.89993,286.45282,435.45395C286.45755,435.2522,286.41095,434.97485,286.33963,434.84564C286.2789,434.71674,286.18982,434.43842,286.1521,434.23566C286.05737,433.7447,285.83438,432.83636,285.6286,432.09842C285.54053,431.77762,285.44434,431.35037,285.41696,431.15848L285.37186,430.8174L286.53992,430.84488C287.30447,430.86285,287.85788,430.82278,288.16833,430.72382C289.00333,430.45657,289.9604,429.96912,290.27582,429.65778C290.67868,429.24228,290.8969,428.54617,290.758,428.12854C290.45914,427.28217,290.18344,426.8082,289.6556,426.21146C289.3344,425.86392,289.02383,425.5166,288.9616,425.45142C288.7962,425.2563,288.53958,424.42154,288.4284,423.7283C288.38354,423.37668,288.3619,422.03745,288.3921,420.7526C288.42715,418.80908,288.40878,418.23495,288.24673,417.44492C288.14243,416.91122,288.0196,416.26025,287.97324,415.9723C287.87164,415.3218,287.74335,414.90442,287.3347,413.758C287.08545,413.06152,286.92303,412.73898,286.27777,411.71445C285.7863,410.9273,284.31836,409.19287,283.4866,408.41895C281.6149,406.68564,280.44482,405.84006,278.74432,404.96075C277.13815,404.1368,276.749,403.9683,276.29413,403.88324C276.07214,403.8355,275.72397,403.7317,275.53482,403.64227C274.41086,403.0952,271.4547,402.74948,269.2097,402.88794 Z M318.3026,440.99432C318.29337,441.3872,317.35532,441.9708,316.57715,442.08C315.77774,442.1887,314.31674,442.41995,313.85764,442.5154C313.62302,442.5524,313.08585,442.8054,312.66522,443.07175C312.2446,443.33804,311.83585,443.5516,311.7615,443.54984C311.28366,443.5386,308.7392,444.21185,307.795,444.60403C306.90466,444.96558,306.72263,445.02505,306.46777,445.01907C306.10675,445.0106,306.13474,444.72437,306.54034,444.19205C306.72662,443.95206,306.8704,443.71106,306.87164,443.658C306.8729,443.6049,306.94086,443.42587,307.0298,443.25797C307.1185,443.10068,307.26404,442.78537,307.3646,442.57523C307.54422,442.1651,308.23605,441.66077,308.6077,441.6695C308.72452,441.67224,308.84232,441.6325,308.88605,441.58044C308.91913,441.52808,309.0908,441.45773,309.2617,441.41925C309.4326,441.3808,309.62622,441.27908,309.68158,441.18475C309.81424,440.96475,310.84625,440.90405,313.52292,440.9351C314.54257,440.94846,315.86053,440.9263,316.4456,440.89755C318.25375,440.81256,318.30685,440.8138,318.3026,440.99432 Z M306.14005,441.33524C306.223,441.4222,306.28397,441.54053,306.2827,441.5936C306.28146,441.6467,306.3533,441.75464,306.4365,441.83093C306.55106,441.92926,306.58752,442.18512,306.57455,442.73727C306.5586,443.4169,306.52347,443.55417,306.23865,443.91934C305.71222,444.6188,305.1773,444.77625,303.56326,444.7383C302.75623,444.71933,302.16257,444.66287,302.12158,444.59814C302.09125,444.5337,301.9542,444.48798,301.8374,444.48523C301.5082,444.4775,300.91916,443.773,300.92816,443.39075L300.9354,443.0828L301.71054,443.10104C302.23087,443.11325,302.5588,443.1741,302.69437,443.28354C302.80917,443.37122,303.13684,443.4427,303.4764,443.4613C304.13477,443.47678,304.46768,443.32523,305.17337,442.6831C305.59674,442.29993,305.63034,442.22638,305.6421,441.7273C305.65582,441.14325,305.82895,441.00922,306.14005,441.33524 Z M299.3411,442.20605C299.57294,442.2859,299.81094,442.5571,300.1595,443.0965C300.42557,443.52768,300.6828,443.88434,300.73538,443.90683C300.77737,443.92908,300.8075,444.00415,300.80576,444.0785C300.804,444.15283,300.89606,444.3037,301.01038,444.41266C301.1247,444.52158,301.21625,444.69376,301.21402,444.7893C301.20877,445.0123,300.5775,445.1993,299.8661,445.18265C299.50507,445.17416,299.19513,445.2519,298.8723,445.4249C298.31268,445.7305,297.5049,445.74338,296.9486,445.45407C296.43427,445.18698,296.42102,444.84668,296.89972,444.3692C297.10648,444.16156,297.30386,443.9006,297.3491,443.7848C297.38367,443.66873,297.5156,443.4806,297.62454,443.36627C297.73346,443.25195,297.9101,442.96927,298.0218,442.73816C298.1332,442.51767,298.27725,442.26605,298.3321,442.19296C298.46326,442.03668,298.90945,442.03656,299.3411,442.20605 Z"/> </g> </g> </svg>