<?xml version='1.0' encoding='utf-8'?>
<svg xmlns="http://www.w3.org/2000/svg" version="1.1" width="600px" height="976px" viewBox="0 0 600 976"> <g id="layer1"> <g style="fill:rgb(255, 255, 255); fill-opacity:1.0; stroke-linejoin: miter"> </g> <g style="fill:rgb(255, 255, 255); fill-opacity:1.0; stroke-linejoin: miter"> <path d="M331.3669,491.58282C331.36694,491.8368,331.6671,491.88287,332.75235,491.79047C333.74524,491.698,334.3456,491.7672,334.92288,492.0442C335.36166,492.25195,335.82346,492.41357,335.96198,492.41357C336.10056,492.41357,336.21606,492.73676,336.2161,493.12927C336.2162,493.8451,336.19305,493.8451,335.33868,493.70667C334.87692,493.61438,334.04562,493.4759,333.49142,493.40668C332.96036,493.33746,332.5216,493.1759,332.5216,493.08356C332.52158,492.96808,332.35995,492.87573,332.15213,492.8758C331.94434,492.8758,331.43628,492.71423,330.9976,492.50647C330.02774,492.04468,329.91217,491.2597,330.7896,491.25958C331.13596,491.25952,331.3669,491.39807,331.3669,491.58282 Z"/> </g> <g style="fill:rgb(255, 255, 255); fill-opacity:1.0; stroke-linejoin: miter"> <path d="M110.81531,583.43024L110.81531,593.11L110.81531,593.11L550.0832,593.11017L550.0832,593.11017L550.0832,583.4303L110.81547,583.43024 Z"/> </g> <g style="fill:rgb(255, 255, 255); fill-opacity:1.0; stroke-linejoin: miter"> <path d="M317.4728,583.43024C316.60815,583.7639,316.13733,584.15533,316.13736,584.5467C316.1374,584.64233,316.09335,584.694,316.0205,584.694C315.98782,584.694,315.94937,584.6836,315.90646,584.6622C315.85608,584.63196,315.8057,584.61487,315.7649,584.61487C315.71222,584.61487,315.67557,584.6433,315.67557,584.7084C315.6756,584.87,315.32928,585.33185,314.29037,586.5558C314.17493,586.7174,314.0595,586.9252,314.0595,587.0176C314.05954,587.13306,313.8517,587.364,313.59772,587.5487C313.34378,587.7335,313.136,587.9875,313.136,588.1491C313.13605,588.4955,312.46655,589.81177,312.18948,589.9734C312.07407,590.06573,311.98172,590.31976,311.98175,590.5737C311.98178,590.8047,311.86636,591.01245,311.75092,591.01245C311.61237,591.0125,311.52,591.2665,311.52005,591.5897C311.52008,591.913,311.40466,592.16705,311.2892,592.16705C311.15067,592.1671,311.0583,592.30566,311.05832,592.4673C311.05832,592.61725,310.9862,592.8605,310.88422,593.11005L310.88733,593.11005L317.48697,593.11005L317.48712,593.11005C317.57544,592.4621,317.6647,592.3973,318.37704,592.3973L318.37894,592.3973C318.95554,592.3973,319.20938,592.5128,319.3017,592.81274C319.3338,592.9626,319.3957,593.05786,319.50342,593.11005L319.50662,593.11005L331.0064,593.1101L331.0064,593.1101C331.23718,593.0957,331.4841,593.08856,331.7475,593.08856C333.50235,593.0883,333.52545,593.0883,334.4259,592.1877L335.3263,591.264L336.96576,591.40234C338.16644,591.51764,338.72064,591.67926,339.11322,592.0256C339.5269,592.4148,340.01102,592.8168,340.40356,593.1101L340.40698,593.1101L378.6058,593.1101L378.60742,593.1101C378.57455,593.04974,378.53296,593.0015,378.48257,592.96796C378.34402,592.8756,378.06693,592.4138,377.8821,591.9289C377.67422,591.44403,377.374,590.98224,377.18927,590.913C377.00455,590.8438,376.866,590.5898,376.86597,590.3589C376.86594,590.128,376.77353,589.8509,376.68115,589.7355C376.38095,589.38916,375.89578,587.034,375.965,586.3874C376.03424,585.97174,376.21893,585.78705,376.63455,585.7408C376.71414,585.73083,376.7837,585.72424,376.84534,585.72424C377.2129,585.72424,377.29782,585.9595,377.53525,587.12616C377.92798,589.1119,378.2513,589.87384,378.87485,590.5203C379.17508,590.8205,379.4753,591.3515,379.5677,591.67474C379.637,591.998,379.84488,592.48285,380.00653,592.7369C380.07547,592.8326,380.13297,592.9613,380.17914,593.1101L380.18295,593.1101L384.76315,593.1101L384.76315,593.1101L384.7631,592.644L385.7098,592.5746C386.4718,592.5284,386.70267,592.3898,387.04898,591.78937C387.25674,591.39685,387.51068,590.7272,387.603,590.28845C387.78763,589.4572,388.0647,589.1569,388.6881,589.1569L388.68817,589.1569C389.1961,589.1569,389.2655,590.4961,388.78073,591.41974C388.6191,591.7662,388.41138,592.43585,388.31906,592.9438C388.3087,592.9983,388.29715,593.0539,388.28464,593.1101L388.28854,593.1101L400.70746,593.1101L400.7077,593.1101C400.77573,592.54425,400.88983,592.4957,401.80383,592.36505C403.05072,592.20325,403.88196,591.9261,403.88193,591.6952C403.88193,591.60284,404.0897,591.46423,404.3437,591.39496C404.64386,591.3256,404.80548,591.07166,404.80545,590.7253C404.80536,590.10187,404.32037,588.9244,404.06638,588.9244L404.06635,588.9244C403.76614,588.9244,403.18872,587.58514,403.18866,586.84625C403.1886,586.269,403.28094,586.1535,403.76584,586.1535L403.76627,586.1535C404.08932,586.1535,404.3431,586.2228,404.34314,586.3382C404.34314,586.4305,404.5972,586.7999,404.9205,587.1463C405.4052,587.65393,405.70532,587.7695,406.65085,587.7695L406.65234,587.7695C407.87613,587.76935,408.7535,587.2382,408.29166,586.7764C408.1531,586.6379,408.0376,586.01447,408.0375,585.39105C408.0374,584.53406,408.07028,584.3342,408.35767,584.3342C408.411,584.3342,408.4731,584.34106,408.54538,584.3519C408.84558,584.3981,409.21506,584.6982,409.3767,585.0676C409.5615,585.414,409.95407,585.80646,410.25427,585.9219C410.76227,586.1297,410.80847,586.24506,410.76242,587.44574C410.71634,588.4387,410.80875,588.8081,411.10895,589.039C411.31677,589.2006,411.50153,589.5008,411.50156,589.7316C411.50165,590.5858,412.37875,591.00134,414.15594,591.00134L414.1571,591.00134L415.81964,591.00116L416.46603,590.07745C416.83542,589.5463,417.3665,589.08453,417.7128,588.9921C418.03607,588.9228,418.61328,588.5533,418.9827,588.1838C419.37518,587.8374,419.86008,587.5372,420.09097,587.5371C420.32187,587.53705,420.5066,587.42163,420.50656,587.3062C420.50656,587.16766,420.6682,587.07526,420.8529,587.07526C421.03766,587.07526,421.24545,586.8212,421.33774,586.4979C421.45316,586.05914,421.63785,585.92065,422.09967,585.9206L422.10043,585.9206C423.16208,585.9206,423.7391,586.1745,423.73917,586.63617C423.7392,586.89014,423.9008,587.0749,424.0855,587.0749L424.0856,587.0749C424.2703,587.0749,424.43195,587.21344,424.43195,587.352C424.43195,587.4477,424.45154,587.4944,424.48624,587.4944C424.52682,587.4944,424.58813,587.4303,424.66287,587.3057C424.77832,587.121,424.89368,586.5206,424.89362,585.96643L424.8935,584.99664L428.72653,584.9962C432.12082,584.99585,432.60574,584.94965,432.88275,584.6032C433.04437,584.3723,433.20596,584.049,433.20593,583.8643C433.20593,583.80334,433.27164,583.6471,433.3832,583.4303L317.47598,583.43024 Z"/> </g> <g style="fill:rgb(255, 255, 255); fill-opacity:1.0; stroke-linejoin: miter"> <path d="M245.8426,235.44418C245.42815,235.44418,245.419,235.55153,245.48868,235.93454C245.55804,236.23471,245.6735,236.62723,245.7659,236.81192C245.85828,237.01974,245.71976,237.38919,245.44275,237.68936C245.0502,238.082,244.70392,238.19754,243.71097,238.19766C242.62573,238.19778,242.44101,238.267,242.44104,238.63644C242.44107,238.86734,242.60275,239.1213,242.78748,239.21371C243.22626,239.37521,243.22632,240.13724,242.78763,240.5068C242.6029,240.66843,242.44131,240.99167,242.44131,241.24564C242.44135,241.47653,242.23358,242.07693,241.97968,242.56186C241.61029,243.32388,241.40247,243.4625,240.57129,243.60117C240.04016,243.69357,239.23209,244.01688,238.7703,244.36331C237.82364,245.05606,237.24655,246.51083,236.9928,249.05081C236.76215,251.33676,236.48514,251.82175,234.47646,253.2305C233.50673,253.92331,232.09831,254.91635,231.35948,255.44754C230.62065,256.00174,229.90489,256.44058,229.76637,256.44058C229.62779,256.44058,229.51234,256.533,229.51234,256.6484C229.51237,256.7639,229.30458,256.94864,229.05061,257.0179C228.79662,257.08725,228.45027,257.29507,228.31175,257.43362C228.15013,257.5953,227.48058,258.12643,226.8572,258.6345C225.63347,259.62747,223.04765,262.21396,223.04768,262.44485C223.04768,262.5372,222.83992,262.83743,222.58592,263.1376C222.33199,263.43784,222.12419,263.85355,222.12422,264.08444C222.12428,264.73093,221.38542,264.98495,219.49202,264.98514L219.48784,264.98514C218.08266,264.98514,217.66753,264.89276,217.32146,264.54666C215.56639,262.65347,213.55727,260.48325,212.79518,259.65207C211.7329,258.47452,210.3243,257.4125,209.40062,257.0894C209.03117,256.9739,208.731,256.7662,208.73097,256.65073C208.73097,256.5353,208.59236,256.4429,208.43077,256.4429L208.43071,256.4429C208.0381,256.4429,206.69885,255.79659,206.53725,255.5195C206.16768,254.94223,204.78224,254.48062,201.45717,253.90378C200.81056,253.81143,199.84077,253.53452,199.26347,253.30362C198.5335,253.02113,195.8045,252.87695,193.13954,252.87695C190.57787,252.87695,188.07535,253.01018,187.46426,253.28183C187.02554,253.46658,186.14816,253.78995,185.52475,254.0209C183.95465,254.57529,181.66885,255.84549,180.9993,256.56137C180.69916,256.8616,180.37592,257.13876,180.26047,257.13876C180.05264,257.13876,179.70636,257.462,176.05844,261.06454C174.39609,262.70413,172.68759,264.5054,172.249,265.08273C171.81032,265.65997,171.25612,266.19116,171.02525,266.26038C170.81746,266.35284,170.63274,266.5144,170.63274,266.62994C170.63277,266.7685,170.37883,267.20715,170.05562,267.62286C169.7324,268.03857,169.47844,268.50043,169.47844,268.63892C169.47847,268.80054,169.36302,268.91602,169.24754,268.91602C169.10905,268.91608,169.01665,269.10077,168.99364,269.3086C168.99364,269.53955,168.69353,270.23224,168.3242,270.87878C167.95482,271.50232,167.49309,272.42603,167.28532,272.88782C167.05443,273.37274,166.80052,273.76532,166.6851,273.76532C166.56963,273.76532,166.47728,273.92694,166.47728,274.1117C166.47734,274.29633,166.17723,274.91986,165.80779,275.47412C165.46153,276.05145,165.02293,276.9981,164.86131,277.5985C164.69981,278.17584,164.42278,278.70685,164.23808,278.77618C164.0764,278.84552,163.93791,279.16876,163.93797,279.51514C163.93803,280.1847,162.83,283.48682,162.55296,283.69464C162.32207,283.85638,162.06822,285.1494,161.92986,286.85815C161.88377,287.66632,161.72227,288.31284,161.6068,288.31284C161.49126,288.31284,161.39897,288.70547,161.39903,289.1672C161.39915,290.32175,160.98387,292.8386,160.63756,293.85458C160.40672,294.57053,159.7603,295.30942,158.25957,296.67197C157.40532,297.434,157.2437,297.78043,157.24382,298.8195C157.24388,299.55832,157.33627,299.8585,157.56705,299.8585L157.56712,299.8585C157.75188,299.8585,157.95976,300.04324,158.05217,300.2972C158.12144,300.52805,158.65251,300.8975,159.27599,301.12833C159.87639,301.3591,160.47679,301.7054,160.61534,301.91324C160.8463,302.19034,161.88536,302.25943,167.31169,302.3281C173.15353,302.3968,173.7539,302.44287,174.12341,302.81232C174.33127,303.04315,174.5853,303.4588,174.6546,303.73584C174.74692,303.98987,175.11646,304.35925,175.48587,304.5208C176.45578,304.9364,176.80219,305.67523,176.45596,306.64508C176.29431,307.06073,176.17902,308.03058,176.17911,308.8156C176.1792,309.60065,176.08688,310.2472,175.97144,310.2472C175.60202,310.24725,175.09457,315.30408,175.34866,316.3432C175.53345,317.05896,176.2493,317.24365,178.81232,317.28955C180.19772,317.3125,180.91354,317.40472,180.98288,317.58942C181.02905,317.7511,181.2138,317.86652,181.39856,317.86652L181.39862,317.86652C181.58331,317.86652,181.8373,318.1436,181.99893,318.48993C182.13757,318.85925,182.39157,319.45966,182.55328,319.87524C182.73804,320.26776,182.87665,320.6834,182.87668,320.8219C182.87668,320.93738,183.17688,321.37598,183.54636,321.76855C184.1235,322.39175,184.37755,322.4842,185.3927,322.4842L185.39499,322.4842C186.04095,322.4842,186.57132,322.5765,186.57132,322.7149C186.57135,322.83032,186.70987,322.9458,186.89459,322.9458L186.89464,322.9458C187.10243,322.9458,187.26411,323.38458,187.37964,324.42358C187.51837,325.7397,187.58765,325.92444,188.09561,326.03973C188.39584,326.13214,188.64987,326.29376,188.6499,326.40918C188.6499,326.5478,188.85767,326.64,189.1117,326.64L189.11194,326.64C189.36583,326.64,189.57352,326.73233,189.57352,326.87085C189.57355,326.98636,189.82744,327.10168,190.15056,327.10168L190.15091,327.10168C190.7743,327.10168,191.18997,327.6789,191.19006,328.5794C191.1901,328.90265,191.28253,329.20276,191.39795,329.27216C191.49033,329.34137,191.65198,329.82617,191.74442,330.33423C191.85992,331.1424,191.9754,331.28088,192.57576,331.41943C192.96834,331.4886,193.26851,331.62714,193.26854,331.74255C193.26854,331.858,193.68388,331.95032,194.19162,331.95032L194.19212,331.95032C194.70012,331.95026,195.11577,331.85785,195.11577,331.74237C195.11574,331.62695,195.39284,331.4422,195.73915,331.30353C196.1086,331.1881,196.6858,330.81854,197.03209,330.47223C197.37843,330.14893,197.77092,329.8717,197.90953,329.8717C198.02498,329.8717,198.11736,329.77936,198.11732,329.6408C198.1173,329.43304,199.04088,329.2019,200.12611,329.1095C200.42625,329.08643,200.65718,328.99396,200.65715,328.9016C200.65715,328.80927,200.86497,328.71692,201.11894,328.71686C201.37294,328.71686,201.58073,328.60138,201.58073,328.48596C201.5807,328.34735,201.88087,328.255,202.27339,328.25494C202.6429,328.25494,202.96614,328.13934,202.96611,328.00092C202.9661,327.8934,203.10672,327.83966,203.42122,327.83966C203.84982,327.83966,204.60138,327.93948,205.76006,328.13904C205.9912,328.18378,206.16214,328.20926,206.29156,328.20926C206.56294,328.20926,206.65169,328.0972,206.72984,327.81573C206.81439,327.4773,207.24286,327.31805,207.6825,327.31805C208.20277,327.31805,208.73871,327.54108,208.73875,327.9541C208.73877,328.1113,208.79233,328.19357,208.91399,328.19357C208.97098,328.19357,209.04291,328.17554,209.13127,328.13867C209.63055,327.93655,210.24002,327.8323,210.7643,327.8323C211.25832,327.8323,211.6767,327.92487,211.85594,328.1153C212.29472,328.53088,212.47939,328.32306,209.33937,331.11737C208.3466,331.99493,207.81563,332.64154,207.81566,332.96472C207.81575,333.9115,208.09288,334.4425,208.64711,334.58105C208.94725,334.67328,209.20128,334.83496,209.20128,334.95044C209.20131,335.0889,209.31668,335.18127,209.45517,335.18127L209.4553,335.18127C209.61696,335.18127,209.89406,335.36603,210.10188,335.5738C210.30971,335.8047,210.56374,335.98926,210.70226,336.01245C211.25645,336.03546,212.2032,336.40472,212.20323,336.58948C212.20323,336.70486,212.8263,336.79718,213.58795,336.79718L213.5887,336.79718C214.3507,336.79712,214.9741,336.70465,214.9741,336.58923C214.97408,336.30637,215.9997,335.91724,216.5963,335.91724C216.68144,335.91724,216.75784,335.92517,216.82127,335.94244C216.90265,335.96466,216.9793,335.975,217.04588,335.975C217.1871,335.975,217.28308,335.92847,217.28307,335.85004C217.28305,335.71378,217.6288,335.6338,217.95494,335.6338C218.18147,335.6338,218.39853,335.67236,218.48372,335.7575C218.62233,335.91913,217.32957,339.15204,217.05257,339.33673C216.96019,339.40607,216.79854,339.79858,216.70625,340.1911C216.63704,340.60675,216.45235,340.95313,216.3369,340.95313C216.22145,340.95313,216.1291,341.13788,216.12914,341.34564C216.12917,341.57654,215.96754,341.96918,215.78285,342.20007C215.59819,342.45404,215.43654,342.84662,215.43657,343.0775C215.4366,343.30853,215.27504,343.56256,215.09032,343.63177C214.90556,343.72418,214.744,344.02435,214.74406,344.32452C214.7441,344.80902,214.85938,344.8786,215.61954,344.8786L215.62192,344.8786C216.19897,344.8786,216.59137,345.0171,216.79915,345.29413C216.94887,345.5186,217.17435,345.63696,217.43872,345.63696C217.50066,345.63696,217.56473,345.63046,217.63045,345.6173C217.67235,345.61032,217.71635,345.60703,217.76152,345.60703C218.01506,345.60703,218.30493,345.71094,218.46175,345.84808C218.59567,346.0011,218.87212,346.0907,219.1337,346.0907C219.18791,346.0907,219.2415,346.08685,219.29305,346.07892C219.35573,346.06927,219.41539,346.06467,219.47055,346.06467C219.6796,346.06467,219.82411,346.1309,219.82411,346.24042C219.82414,346.379,219.9857,346.4944,220.17033,346.4944L220.17049,346.4944C220.35524,346.4944,220.51689,346.5868,220.51689,346.7254C220.51692,346.84073,220.81697,346.95618,221.20934,346.95618L221.20964,346.95618C221.57912,346.95618,221.90239,347.0484,221.90242,347.16388C221.90242,347.2793,222.20259,347.48706,222.59511,347.6256C222.96461,347.74103,223.28789,347.94885,223.28792,348.06427C223.28792,348.14267,223.40512,348.18915,223.58165,348.18915C223.66498,348.18915,223.76152,348.1788,223.86519,348.15656C223.9493,348.14532,224.0266,348.13953,224.09543,348.13953C224.31006,348.13953,224.44243,348.19574,224.44246,348.3181C224.44246,348.45673,224.60414,348.57208,224.78883,348.57208C224.97359,348.57208,225.13521,348.66437,225.13521,348.7567C225.13524,348.8722,225.50471,349.14923,225.94344,349.40326C226.38216,349.63403,226.75166,349.91113,226.7517,350.00342C226.7517,350.11884,227.02852,350.1881,227.35161,350.1881L227.35204,350.1881C227.69841,350.1881,228.13716,350.37274,228.34499,350.6267C228.55284,350.85754,228.92232,351.11157,229.17632,351.20392C230.23851,351.52704,231.55507,355.01355,231.97105,358.59253C232.2253,360.73993,232.38701,361.43262,232.77962,362.00983C233.03365,362.33313,233.21837,362.7718,233.2184,362.95654C233.21843,363.1413,233.38014,363.6031,233.56493,363.94934C233.74968,364.31873,233.91136,364.8499,233.91139,365.12695C233.91142,365.40405,234.21169,366.16595,234.6043,366.81244C234.97379,367.45892,235.29712,368.19788,235.29715,368.42877C235.29718,368.68274,235.38956,368.8905,235.505,368.8905C235.62045,368.8905,235.75906,369.3753,235.8284,369.9757C236.05948,371.8922,236.12881,372.14624,236.70618,372.88507C237.00635,373.3006,237.37589,373.87787,237.51443,374.20105C237.65305,374.5244,237.88403,375.03223,238.04565,375.3556C238.57687,376.5562,238.99265,377.9878,238.9927,378.63428C238.9928,379.37323,238.34653,381.56683,238.04639,381.91327C237.72314,382.25964,237.81567,383.66815,238.18524,384.7764C238.4624,385.56143,238.48553,385.97702,238.30093,386.66983C238.16241,387.17783,238.1163,387.84744,238.20871,388.1708C238.34729,388.74802,237.63162,389.99496,236.26944,391.44974C235.99243,391.75003,235.76154,392.0732,235.76154,392.14255C235.76157,392.21182,235.5076,392.62753,235.16132,393.06625C234.6534,393.73587,234.46864,393.82834,233.47578,393.8284C232.5291,393.82852,232.2982,393.92093,231.97496,394.4058C231.76717,394.70602,231.60564,395.44492,231.6057,396.02225C231.60579,396.94583,231.76747,397.29214,233.29167,399.324C234.21541,400.54764,235.16226,401.86368,235.41626,402.25626C235.64725,402.6257,235.92435,403.04123,236.03983,403.17978C238.09518,405.74258,238.90347,407.08176,238.81119,407.7283C238.69583,408.44412,239.13464,409.52933,239.55026,409.52933L239.55032,409.52933C239.6889,409.52933,239.98909,409.73706,240.26611,409.991C240.52017,410.24503,240.982,410.63748,241.2822,410.8914C241.62857,411.14542,241.79028,411.44553,241.72101,411.65335C241.5517,412.05566,238.72304,412.28345,233.98257,412.28345C233.55276,412.28345,233.10724,412.2816,232.64656,412.2778C227.8437,412.2321,198.47261,411.889,186.46558,411.72867C184.63277,411.70303,182.91861,411.69025,181.47604,411.69025C179.0475,411.69025,177.3887,411.7265,177.22937,411.79892C175.11621,412.74802,175.62088,412.77036,164.90225,412.77036C164.37222,412.77036,163.81476,412.77032,163.22818,412.77032C162.97478,412.77032,162.71594,412.77032,162.45154,412.77036L162.34149,412.77036C154.4414,412.77036,149.70445,412.6787,149.45166,412.54086C149.24379,412.42545,148.78194,412.21768,148.4587,412.10233C147.9507,411.91763,147.83516,411.7098,147.74281,410.83237C147.58101,409.5624,147.18837,409.14682,145.98769,408.93918C145.80191,408.91086,145.623,408.89716,145.45256,408.89716C144.37302,408.89716,143.63254,409.44742,143.63264,410.3248C143.6327,411.3408,143.3326,411.54868,141.55464,411.71048C138.34511,412.01102,135.55116,412.42697,135.32027,412.68094C135.18178,412.8196,135.08943,413.39682,135.13576,413.95102L135.2051,414.9669L136.24416,415.10538C137.49104,415.24374,138.7842,415.89017,138.7842,416.35196C138.78424,416.51242,138.88882,416.638,139.0071,416.638C139.025,416.638,139.04321,416.63513,139.06142,416.62906C139.07056,416.62775,139.0797,416.6271,139.0888,416.6271C139.24095,416.6271,139.38727,416.80627,139.43092,417.06772C139.50014,417.5295,139.70796,417.52945,147.51259,417.82877C155.47882,418.105,159.21954,418.40475,159.6814,418.75113C159.99911,419.01398,160.4052,419.14172,160.87495,419.14172C161.39532,419.14172,161.99384,418.985,162.63696,418.6815L163.86066,418.08102L167.9939,418.33456C171.2266,418.51895,172.35806,418.68045,173.09698,419.02676C174.25159,419.58078,175.15219,420.52737,175.3601,421.4279C175.59755,422.45642,176.56154,423.13788,177.41971,423.13788C177.81378,423.13788,178.18553,422.99417,178.45438,422.6744C178.66217,422.39737,179.07776,421.91238,179.35474,421.56595L179.83963,420.96555L182.93372,421.03452C184.61935,421.08047,187.45947,421.21872,189.23749,421.33408C191.01544,421.44925,195.54118,421.6566,199.28185,421.77164C203.0225,421.8867,206.67085,422.071,207.36357,422.20944C208.05629,422.34793,211.49681,422.5092,215.00655,422.57803C218.51631,422.67,221.77208,422.80826,222.28004,422.9236C222.95071,423.08133,223.94151,423.1548,224.9142,423.1548C226.21884,423.1548,227.49089,423.02264,227.91417,422.78445C228.20645,422.61087,228.6939,422.53122,229.18777,422.53122C229.94232,422.53122,230.71191,422.71713,230.8236,423.03812C230.87695,423.16272,231.04004,423.2461,231.22827,423.2461C231.2843,423.2461,231.34258,423.2387,231.40083,423.2228C231.45706,423.20746,231.51895,423.20004,231.58374,423.20004C231.81161,423.20004,232.0754,423.29184,232.2552,423.45364C232.46306,423.63834,232.87871,423.86917,233.17891,423.96152C233.6638,424.1,233.68694,424.19235,233.54848,425.1852C233.45616,425.7856,233.3177,426.47842,233.20229,426.7324C232.99452,427.3096,230.87047,429.61893,230.57027,429.619C230.43175,429.619,230.20085,429.8961,230.06233,430.24246C229.9008,430.61197,229.30049,431.39706,228.72331,431.99747C228.14613,432.621,227.19954,433.75253,226.59926,434.5377C225.9759,435.32285,225.35255,436.10794,225.19093,436.26962C225.05241,436.43118,224.91386,436.6622,224.9139,436.77762C224.9139,436.8931,224.59068,437.3087,224.2213,437.70126C223.82878,438.0939,223.52867,438.55576,223.5287,438.74045C223.5287,438.90213,223.43636,439.1099,223.3209,439.17923C223.20549,439.2485,223.0439,439.59482,222.97466,439.91812C222.88231,440.2645,222.6515,440.6802,222.48982,440.8649C222.30516,441.0496,222.14354,441.39603,222.14357,441.65005C222.1436,441.90402,222.00514,442.38895,221.84352,442.73526C221.17409,444.07462,220.87416,446.79935,220.87468,451.48672L220.8752,456.1279L221.45253,456.68198C221.7758,456.959,222.19151,457.5363,222.35316,457.95187C222.51485,458.36746,222.86125,458.75992,223.09215,458.8292C223.32307,458.9216,223.53093,459.1293,223.53093,459.31406C223.53096,459.49875,223.6233,459.63736,223.76183,459.63736C223.87733,459.63736,224.06206,459.91434,224.13142,460.2607C224.2238,460.63016,224.36235,460.9996,224.45476,461.13815C224.54713,461.2535,224.8705,461.94626,225.14763,462.6389C225.77122,464.13974,226.25624,465.2711,227.08772,467.07205C227.41103,467.7878,227.68825,468.50363,227.68825,468.61905C227.68828,468.75757,227.78058,468.87302,227.91907,468.87302L227.91917,468.87302C228.03462,468.87302,228.1501,469.12698,228.15013,469.45026C228.15019,469.7735,228.21947,470.02753,228.33492,470.02753L228.33495,470.02753C228.42732,470.02753,228.6352,470.37387,228.7968,470.76636C228.98158,471.18195,229.25874,471.80536,229.44347,472.15173C229.62825,472.4749,229.76686,472.91364,229.76686,473.12146C229.76689,473.32928,229.85924,473.4909,229.99782,473.4909L229.99791,473.4909C230.11336,473.4909,230.22874,473.60635,230.22878,473.72174C230.2288,473.9757,230.43663,474.27594,231.17558,475.08405C231.36034,475.31488,231.59132,475.6612,231.6837,475.86902C231.75294,476.07678,231.93773,476.26154,232.07625,476.26154C232.19173,476.26154,232.30717,476.42316,232.3072,476.60785C232.30724,476.7926,232.44579,476.95416,232.6074,476.95416L232.60744,476.95416C233.06929,476.95416,234.80116,478.70883,235.30927,479.72473C235.56332,480.23273,235.77121,480.90228,235.77124,481.22552C235.7713,481.54877,235.90985,481.80286,236.09457,481.80286L236.09464,481.80286C236.25624,481.80286,236.46407,482.0798,236.53339,482.42615C236.60269,482.7956,236.94913,483.3728,237.2724,483.74225C237.59573,484.11163,237.84973,484.50415,237.84976,484.61963C237.84976,484.7351,237.98834,484.98907,238.14996,485.1507C238.86588,485.95874,239.00443,486.1897,239.00446,486.53607C239.00449,486.72076,239.0969,486.88232,239.18927,486.88232C239.28165,486.88232,239.85889,487.34406,240.43625,487.89825C241.01355,488.45233,241.7756,488.96027,242.12198,489.05255C242.46835,489.14484,242.95331,489.3988,243.2073,489.65277C243.4613,489.88367,243.96933,490.1607,244.3388,490.22992C245.12393,490.4146,245.7475,491.61523,245.88626,493.30084C245.93246,493.94733,246.07108,494.50153,246.16342,494.50153C246.2558,494.50153,246.50983,494.96326,246.71771,495.51746C246.94873,496.09467,247.45676,496.9027,247.84933,497.3415C249.16367,498.74765,249.67215,498.88782,253.55812,498.88782L253.60632,498.88782C256.69592,498.88782,257.10992,498.93484,257.45523,499.30304C257.66302,499.55707,258.1018,499.81097,258.44815,499.90338C258.86377,499.99567,259.0947,500.2035,259.09473,500.48053C259.09476,500.71143,259.4643,501.28864,259.90308,501.75037C260.3418,502.23523,260.7113,502.7663,260.71133,502.95105C260.71136,503.13574,260.84995,503.2743,260.98846,503.2743C261.3117,503.2743,261.86603,504.29016,261.8661,504.84436C261.8661,504.9637,261.91647,505.03268,261.99863,505.03268C262.02774,505.03268,262.0608,505.02405,262.09702,505.00592C262.11328,504.99615,262.13046,504.99146,262.14822,504.99146C262.25662,504.99146,262.38712,505.16693,262.4665,505.44458C262.5358,505.74475,262.74365,506.068,262.9284,506.13727C263.11313,506.20654,263.2517,506.4605,263.2517,506.71448C263.25174,506.94543,263.4596,507.1994,263.6905,507.26862C263.9445,507.31476,264.17545,507.61487,264.22165,507.9151C264.26575,508.20142,264.41486,508.42468,264.56876,508.42468C264.57623,508.42468,264.58368,508.42416,264.59116,508.4231C264.6071,508.41776,264.62305,508.4152,264.63876,508.4152C264.75974,508.4152,264.86823,508.56766,264.86826,508.79242C264.8683,509.02338,265.07614,509.27734,265.33014,509.34656C265.60724,509.41583,265.792,509.66986,265.79202,509.96997C265.79205,510.27014,265.97684,510.5241,266.25388,510.59338C266.55408,510.6626,266.71576,510.91656,266.71582,511.26294C266.71585,511.60925,266.85437,511.81708,267.06213,511.81708L267.06223,511.81708C267.24695,511.81708,267.40854,511.9787,267.40857,512.1865C267.4086,512.3943,267.61642,512.60205,267.87048,512.6713C268.12445,512.74054,268.3323,512.97144,268.33234,513.20233C268.33234,513.4333,268.5402,513.6642,268.79422,513.73334C269.0713,513.8027,269.25607,514.0566,269.2561,514.3337C269.25613,514.6108,269.39465,514.81854,269.5332,514.81854L269.53323,514.81854C269.92578,514.81854,270.78018,515.74207,270.96497,516.38855C271.04416,516.62604,271.19125,516.79565,271.30435,516.79565C271.32318,516.79565,271.3411,516.79095,271.35757,516.78107C271.39487,516.7512,271.42975,516.7382,271.4599,516.7382C271.52307,516.7382,271.5654,516.7952,271.56543,516.87335C271.56543,517.0119,271.72705,517.1274,271.91177,517.1274L271.91183,517.1274C272.0966,517.1274,272.30438,517.38135,272.39676,517.7045C272.48914,518.074,272.697,518.28174,272.97406,518.28174C273.29733,518.28174,273.41275,518.44336,273.4128,518.859C273.41284,519.18634,273.47018,519.32745,273.61868,519.32745C273.6587,519.32745,273.70535,519.3172,273.75928,519.2976C273.8145,519.2755,273.86316,519.264,273.90518,519.264C274.0388,519.264,274.1056,519.3805,274.10565,519.6439C274.10568,519.92096,274.24417,520.1288,274.45193,520.1288L274.45203,520.1288C274.65985,520.1288,274.91388,520.38275,275.0294,520.70605C275.1449,521.02924,275.3988,521.2832,275.6066,521.2832L275.60666,521.2832C275.7914,521.2832,275.95306,521.49097,275.9531,521.745C275.95313,521.999,276.1148,522.2068,276.29953,522.2068C276.50735,522.2068,276.6459,522.41455,276.64594,522.76086C276.64597,523.1073,276.80762,523.36127,277.10782,523.4304C277.36182,523.49976,277.56967,523.7075,277.5697,523.8922C277.5697,524.077,277.77753,524.2848,278.0315,524.354C278.30865,524.4232,278.4934,524.6772,278.49344,524.95435C278.49347,525.23145,278.60892,525.4392,278.74744,525.4392L278.74747,525.4392C278.86295,525.4392,279.0938,525.7393,279.20935,526.13184C279.34793,526.5012,279.60187,526.82446,279.78662,526.82446L279.78668,526.82446C279.97144,526.82446,280.10995,527.0323,280.11,527.28625C280.11002,527.5403,280.20242,527.74805,280.31787,527.74805C280.57187,527.74805,280.91837,529.0641,280.82605,529.64136C280.80298,529.8954,280.9185,530.057,281.1263,530.057C281.38028,530.057,281.54196,530.3571,281.63437,530.95746C281.7268,531.58093,281.91153,531.9042,282.21176,531.9734C282.46576,532.0426,282.65048,532.25037,282.65048,532.4352C282.65054,532.7815,283.18167,533.10474,283.8051,533.1508C283.98984,533.1739,284.1977,533.42786,284.2901,533.75116C284.3608,533.99854,284.4315,534.1377,284.47113,534.1377C284.48328,534.1377,284.49252,534.1246,284.49796,534.0975C284.51166,534.0152,284.53094,533.97723,284.5544,533.97723C284.68903,533.97723,284.96075,535.2276,285.09854,536.545C285.191,537.63025,285.3989,538.34595,285.60672,538.5076C286.11478,538.877,286.0921,542.5022,285.56107,542.8717C285.35327,543.0334,285.19162,543.37976,285.19165,543.6338C285.1917,544.23413,284.73004,545.2963,284.45294,545.2964C284.3606,545.2964,284.26828,545.50415,284.2683,545.78125C284.26834,546.05835,284.08365,546.3124,283.80655,546.3817C283.55258,546.4509,283.41406,546.58954,283.4833,546.70496C283.64496,546.98206,283.13718,548.5292,282.88315,548.5292C282.7908,548.5292,282.6292,548.7832,282.55994,549.1065C282.46765,549.4298,282.25986,549.6838,282.07516,549.68384C281.8904,549.68384,281.72882,549.8685,281.72882,550.0995C281.72885,550.35345,281.5211,550.76917,281.26712,551.06934C281.01315,551.3695,280.80536,551.739,280.8054,551.9237C280.8054,552.0853,280.5977,552.4086,280.34363,552.61646C280.0897,552.8474,279.88193,553.1476,279.88196,553.28613C279.88196,553.4478,279.7203,553.60944,279.5356,553.7018C279.35092,553.7711,279.18927,554.002,279.1893,554.2329C279.18936,554.64856,277.6656,556.14966,277.24994,556.14966C277.1114,556.14966,276.85742,556.3575,276.6958,556.6115C276.5342,556.8656,276.16476,557.07336,275.8646,557.0734C275.56442,557.0735,275.26428,557.21204,275.19498,557.37366C275.05652,557.76624,273.02457,558.2283,271.43134,558.2284C270.73865,558.2285,270.18448,558.3209,270.18448,558.43634C270.1845,558.75964,269.00696,559.1062,267.57538,559.2218C266.81335,559.26794,266.14377,559.4066,266.0745,559.5221C265.88983,559.7761,263.9272,560.3074,263.14215,560.3075C262.81885,560.3075,262.56485,560.3999,262.56488,560.4923C262.56488,560.58466,262.10312,560.86176,261.52585,561.0927C260.94864,561.3468,260.48685,561.6008,260.48688,561.6932C260.48688,561.7855,260.2329,561.94727,259.90964,562.0165C259.60944,562.0858,259.03226,562.4553,258.66284,562.80176C258.29343,563.14813,257.78552,563.5869,257.5546,563.77167C256.65414,564.4645,255.63837,566.4966,255.63849,567.628C255.63858,568.34375,256.86246,569.5443,257.60135,569.5443L257.6017,569.5443C257.92484,569.5443,258.17868,569.63666,258.1787,569.752C258.17874,570.05225,259.91043,570.6985,260.7186,570.6985L260.71902,570.6985C261.18066,570.6985,261.43457,570.837,261.52695,571.16016C261.64246,571.4834,261.87335,571.62195,262.40445,571.62195L262.40527,571.62195C263.4439,571.62195,264.18243,571.85266,264.18246,572.1759C264.1825,572.3134,264.33606,572.3869,264.62415,572.3869C264.72302,572.3869,264.83774,572.37823,264.96756,572.36053C265.0544,572.3509,265.14227,572.34625,265.22757,572.34625C265.5504,572.34625,265.8364,572.4125,265.8912,572.52203C265.98358,572.66046,266.56052,572.7759,267.20685,572.7759L267.20798,572.7759C267.83115,572.7759,268.33884,572.8682,268.33884,573.0067C268.33887,573.12213,268.4774,573.23755,268.66214,573.23755C268.84686,573.23755,269.03165,573.37604,269.10086,573.5146C269.15848,573.72186,273.81686,573.82526,278.524,573.82526C283.25467,573.82526,288.03455,573.7208,288.24286,573.5125C288.4045,573.3508,288.86627,573.23535,289.28192,573.2353C289.69754,573.2352,290.0439,573.11975,290.04388,573.0043C290.04388,572.8657,290.82892,572.7733,291.91415,572.7732C293.7614,572.77295,295.56244,572.4264,295.83948,572.01074C295.90872,571.8953,296.4398,571.7567,296.994,571.6874C298.1716,571.5718,299.27988,571.17914,299.27985,570.9252C299.27982,570.6942,301.15012,570.46313,303.32065,570.3936C304.52133,570.3473,305.0293,570.2549,305.30634,569.9547C305.51413,569.72375,305.8605,569.539,306.09137,569.539C306.2992,569.53894,306.53006,569.3542,306.59933,569.1002C306.66855,568.8462,307.06104,568.5691,307.61523,568.40735C308.12317,568.2457,308.5157,567.99164,308.5157,567.8069C308.51566,567.5529,308.81583,567.4605,309.62396,567.46045C310.2243,567.4603,310.84775,567.34485,310.98633,567.2063C311.0866,567.106,311.2304,567.04926,311.79785,567.04926C312.5371,567.04926,313.99533,567.14557,317.01294,567.3673C317.2873,567.3849,317.55414,567.3933,317.80942,567.3933C319.22995,567.3933,320.2918,567.13153,320.29175,566.7204C320.29172,566.55676,321.86847,566.2661,322.62955,566.2661C322.7275,566.2661,322.81198,566.27094,322.8778,566.28143C322.88962,566.2827,322.9015,566.2834,322.9134,566.2834C323.11142,566.2834,323.3218,566.1067,323.4089,565.88885C323.4781,565.61176,323.82443,565.3808,324.28625,565.31146C326.13345,564.98804,326.57217,564.8494,326.68756,564.54926C326.7568,564.36456,327.05695,564.22595,327.35715,564.2259C327.63425,564.2259,328.1653,563.97186,328.5116,563.6485C329.03217,563.1712,329.45084,562.9997,330.208,562.9997C330.25684,562.9997,330.30704,563.00037,330.3588,563.0018C330.4973,563.0018,330.8667,562.42444,331.1437,561.73175C331.65158,560.53094,331.65155,560.34625,331.3974,558.8223C331.23566,557.9218,331.05072,556.25934,330.98138,555.15094C330.91193,553.6962,330.7502,552.8881,330.4269,552.3802C330.19592,551.96454,329.98804,551.4104,329.988,551.1103C329.98798,550.8331,329.8725,550.60223,329.75705,550.60223C329.61856,550.60223,329.52615,550.27905,329.52612,549.90955C329.52606,549.517,329.43365,549.21686,329.29514,549.21686L329.2951,549.21686C329.17963,549.21686,329.01797,548.82434,328.92557,548.33954C328.83313,547.8777,328.60217,547.2543,328.39432,547.0003C328.16342,546.7232,327.86316,546.05365,327.67834,545.49945C327.4936,544.9454,327.17026,544.32196,326.98553,544.11414C326.80075,543.88324,326.38507,543.35223,326.06177,542.89044C325.25342,541.71295,324.26047,540.5123,323.1058,539.28864C321.39688,537.46466,321.28143,537.3262,321.14282,536.9106C321.05045,536.70276,320.70404,536.3796,320.35773,536.241C320.01132,536.0794,319.57254,535.8255,319.41095,535.6639C319.24924,535.5022,318.99527,535.3637,318.87985,535.3637C318.76434,535.3637,318.672,535.20215,318.672,535.01746C318.67197,534.8327,318.51025,534.6711,318.30246,534.6711L318.3023,534.6711C317.7482,534.6711,317.3095,533.97833,317.2863,533.12415C317.2862,532.45447,317.19382,532.3621,316.45493,532.22363C316.0162,532.13135,315.57745,531.9236,315.50818,531.76196C315.43887,531.5772,315.25415,531.4387,315.06943,531.4387L315.06934,531.4387C314.51517,531.4387,313.59155,530.90784,313.59152,530.58453C313.5915,530.4229,313.47604,530.2844,313.3606,530.2844C313.22208,530.2844,313.12967,529.98425,313.1296,529.61475C313.12955,528.99133,312.18277,527.7446,311.72095,527.7446L311.72092,527.7446C311.60547,527.7446,311.51306,527.62915,311.51306,527.5137C311.51303,527.2367,309.89658,525.66675,309.61945,525.66675L309.61942,525.66675C309.5271,525.66675,309.43472,525.50507,309.4347,525.3204C309.43466,525.1356,309.2268,524.8585,308.9728,524.69696C308.71878,524.53534,308.51093,524.2352,308.5109,524.02734C308.51086,523.6349,307.44867,522.4343,307.1023,522.4343L307.10226,522.4343C306.9868,522.4343,306.89438,522.04175,306.89432,521.5338C306.89426,520.7949,306.75565,520.5409,306.17834,520.1023C304.9083,519.1095,304.354,518.43994,304.35394,517.8396C304.35388,517.10065,303.96127,516.2926,303.2223,515.53064C302.85278,515.16125,302.4833,514.63025,302.3909,514.3763C302.3216,514.09924,302.1369,513.8914,302.02142,513.8914L302.02136,513.8914C301.9059,513.8914,301.8136,513.72974,301.81357,513.54504C301.81354,513.36035,301.60568,513.08325,301.35168,512.9217C301.09766,512.76,300.8898,512.4368,300.88977,512.20593C300.88974,511.97504,300.7281,511.74414,300.54333,511.67487C300.3586,511.60565,300.10455,511.19,299.966,510.75128C299.8274,510.31262,299.61954,509.96625,299.50412,509.96625C299.41174,509.96625,299.18076,509.50452,299.0191,508.9273C298.85736,508.34998,298.62643,507.88824,298.53406,507.88824C298.4417,507.88824,298.34933,507.63422,298.3493,507.3341C298.34924,506.98773,298.18762,506.73376,297.8874,506.6645C297.56415,506.59534,297.4256,506.3413,297.42557,505.94873C297.42554,505.60242,297.28687,505.27917,297.10217,505.20984C296.91745,505.1407,296.7096,504.7251,296.64026,504.28632C296.54782,503.8476,296.3862,503.50128,296.27075,503.50128C296.15527,503.50128,295.94748,503.13184,295.8088,502.69318C295.67026,502.2545,295.4624,501.88513,295.34695,501.88513L295.34692,501.88513C295.25458,501.88513,295.0929,501.51563,295.0236,501.05383C294.93118,500.6151,294.70023,500.17645,294.5155,500.10724C294.35385,500.0379,294.1922,499.784,294.19217,499.5531C294.19214,499.29907,294.05356,499.0451,293.86884,498.97583C293.70718,498.90656,293.43008,498.44482,293.26834,497.93683C293.10666,497.45197,292.87573,497.03632,292.76025,497.03632C292.66794,497.03632,292.57553,496.85168,292.5755,496.6208C292.5755,496.3899,292.3676,496.0666,292.11362,495.8819C291.85962,495.6972,291.65176,495.37396,291.65173,495.16614C291.6517,494.9583,291.44388,494.56586,291.18982,494.2657C290.9358,493.96545,290.72794,493.54993,290.72794,493.29596C290.7279,493.06506,290.56622,492.8803,290.38153,492.8803L290.3814,492.8803C290.19672,492.8803,290.03516,492.7418,290.03513,492.5802C290.0351,492.39545,289.82724,492.026,289.5732,491.7259C289.31918,491.42572,289.11136,491.07947,289.11133,490.9178C289.1113,490.75616,288.90347,490.4098,288.64938,490.10974C288.39542,489.8095,288.18753,489.3246,288.1875,489.02448C288.18747,488.72424,288.0489,488.4934,287.86417,488.4934C287.67944,488.4934,287.4947,488.33185,287.4023,488.1471C287.33307,487.96243,287.1253,487.80084,286.9175,487.80084L286.9174,487.80084C286.68646,487.80084,286.571,487.56995,286.57095,487.1081C286.57092,486.64636,286.45547,486.41547,286.2246,486.41547L286.22452,486.41547C286.0398,486.41547,285.87817,486.34625,285.87814,486.23083C285.87814,486.06915,285.06982,485.00708,284.37708,484.3144C284.19232,484.10663,284.03064,483.7834,284.0306,483.57556C284.03058,483.34467,283.9151,483.18304,283.79965,483.18304L283.79962,483.18304C283.4994,483.18304,282.64502,482.32886,282.645,482.0517C282.64496,481.79266,283.79712,481.39597,284.37997,481.39597C284.4725,481.39597,284.5507,481.40598,284.60764,481.4281C284.62836,481.43536,284.64822,481.43884,284.66718,481.43884C285.0706,481.43884,285.07266,479.8613,284.6536,479.44232C284.37653,479.18835,284.37653,479.07288,284.63046,478.84198C284.8248,478.65973,285.60696,478.56693,286.30475,478.56693C286.93344,478.56693,287.49365,478.64227,287.49365,478.79547C287.49365,478.93402,287.7477,479.14178,288.07098,479.25726C288.3943,479.37262,288.64825,479.58044,288.64825,479.719C288.64825,479.8344,288.90234,479.94983,289.2256,479.94983L289.22592,479.94983C289.54904,479.94983,289.80283,480.04208,289.80286,480.15753C289.80286,480.27295,290.2185,480.43463,290.72653,480.52692C291.30377,480.6192,291.67325,480.82697,291.76566,481.10406C291.83496,481.3349,292.2275,481.612,292.62006,481.70428C293.0357,481.77356,293.4975,481.98132,293.6592,482.11987C294.22675,482.6323,294.46042,482.79657,294.67096,482.79657C294.72598,482.79657,294.77945,482.78534,294.83685,482.76617C294.85516,482.76096,294.87286,482.7584,294.88986,482.7584C295.02316,482.7584,295.11398,482.91562,295.114,483.18182C295.11404,483.40573,295.17435,483.55426,295.25842,483.55426C295.27838,483.55426,295.2997,483.54587,295.32187,483.52814C295.37106,483.50046,295.4444,483.48795,295.53488,483.48795C296.12384,483.48795,297.43854,484.0189,297.53867,484.3592C297.6079,484.5901,298.02356,484.82092,298.4623,484.89014C298.90106,484.98248,299.2705,485.16718,299.2705,485.3288C299.27054,485.49048,299.50146,485.6289,299.77853,485.65198C300.77145,485.74426,301.81055,485.9981,301.81058,486.18286C301.81058,486.2752,302.01837,486.41376,302.2724,486.48297C302.59567,486.55225,302.73422,486.80615,302.73428,487.2218C302.7343,487.5279,302.79773,487.70715,302.8983,487.70715C302.9191,487.70715,302.9415,487.6995,302.96524,487.68365C303.01434,487.6509,303.07797,487.63553,303.14685,487.63553C303.27228,487.63553,303.4151,487.68643,303.51947,487.77588C303.68094,487.9172,304.38943,487.98785,305.32104,487.98785C305.4551,487.98785,305.5938,487.9864,305.73618,487.98346C306.01392,487.97418,306.2592,487.96954,306.4742,487.96954C307.33167,487.96954,307.7081,488.04337,307.74503,488.19104C307.8143,488.35263,308.20667,488.49115,308.64526,488.49115L308.64597,488.49115C309.08453,488.49115,309.4307,488.5834,309.4307,488.69885C309.4307,488.7912,310.07724,488.95282,310.8392,489.02203C311.62436,489.09113,312.34015,489.2527,312.40942,489.36823C312.47873,489.48364,312.84818,489.6452,313.24072,489.71448C316.0809,490.29138,316.72745,490.45294,316.88913,490.73004C317.00458,490.89163,317.4893,491.0301,318.04333,491.0301L318.0453,491.0301C319.49924,491.0301,320.74527,491.28387,320.7453,491.58398C320.74533,491.71252,321.03763,491.78265,321.62222,491.78265C321.77243,491.78265,321.94196,491.778,322.13074,491.76855C322.29892,491.75864,322.465,491.754,322.62372,491.754C323.2059,491.754,323.68936,491.8162,323.81638,491.90692C323.978,492.02228,324.5784,492.20697,325.17874,492.27612C325.8022,492.36847,326.2871,492.5301,326.2871,492.6455C326.28714,492.784,326.70276,492.94562,327.21082,493.01477C327.7188,493.10718,328.20367,493.2688,328.27298,493.36115C328.34225,493.47647,328.68845,493.56885,329.0808,493.56885L329.08154,493.56885C329.52005,493.56885,329.7508,493.68427,329.75082,493.9151C329.75085,494.146,330.07413,494.30762,330.67453,494.3999C331.18253,494.4922,331.59814,494.63074,331.59818,494.72308C331.59818,494.81543,331.8522,494.977,332.17545,495.04633C332.49872,495.1386,332.75275,495.30023,332.75275,495.41565C332.75278,495.55414,333.4681,495.64642,334.36823,495.64642L334.37085,495.64642C335.2475,495.64642,335.9854,495.73865,335.98544,495.854C335.98544,495.96948,336.44736,496.17725,337.0015,496.31573C337.5788,496.45422,338.15607,496.73126,338.34082,496.91595C339.0105,497.65472,339.21835,497.9549,339.21838,498.1396C339.2184,498.32434,339.72647,499.0401,340.3731,499.77893C340.85806,500.35614,341.5047,501.39514,341.9435,502.38794C342.1514,502.87286,342.4285,503.26538,342.56708,503.26538C342.68253,503.26538,343.00583,503.70398,343.2599,504.21198C343.4908,504.74304,343.83725,505.2279,343.99887,505.27405C344.16055,505.34326,344.29913,505.5973,344.29913,505.8282C344.29916,506.05908,344.3915,506.2669,344.4839,506.2669L344.48392,506.2669C344.57632,506.2669,344.8534,506.61325,345.10742,507.00568C345.47693,507.65222,347.4168,510.21503,348.5715,511.64648C348.75626,511.8543,348.9179,512.2007,348.91794,512.3623C348.91794,512.54706,349.03345,512.7317,349.1489,512.77783C349.28745,512.8241,349.49533,513.5167,349.63394,514.34796C349.74948,515.1792,349.95737,515.87195,350.09592,515.918C350.2114,515.96423,350.30377,516.1952,350.3038,516.426C350.30383,516.6569,350.46548,516.8878,350.65024,516.98016C350.83493,517.04944,350.9966,517.3034,350.99664,517.55743C350.99667,517.8114,351.2045,518.06537,351.45853,518.1577C351.71255,518.2269,351.92035,518.4347,351.92038,518.5964C351.9204,518.758,352.28986,519.28906,352.72867,519.75085C353.16742,520.23566,353.53696,520.67444,353.537,520.7437C353.537,520.83606,353.6987,521.0439,353.8834,521.25165C354.80713,522.24445,355.61545,523.23724,355.61545,523.39886C355.61545,523.51434,355.7771,523.58356,355.9618,523.58356C356.14655,523.58356,356.30817,523.7452,356.3082,523.9299C356.30823,524.13763,356.46988,524.34546,356.65463,524.4378C356.86246,524.5071,357.46286,525.0151,358.0171,525.56915C358.57132,526.1232,359.2872,526.63116,359.6335,526.72345C359.9568,526.79266,360.23392,527.0005,360.23395,527.1852C360.23395,527.3699,360.39557,527.50836,360.5802,527.50836L360.58032,527.50836C360.76508,527.50836,361.15762,527.7624,361.45782,528.06256C361.73557,528.3402,362.01334,528.5156,362.12997,528.5156C362.1491,528.5156,362.16388,528.5109,362.17365,528.50116C362.1954,528.47217,362.21716,528.45905,362.23676,528.45905C362.2796,528.45905,362.3122,528.52155,362.31223,528.6166C362.31223,528.7782,362.45084,528.8936,362.63553,528.8936C362.82028,528.8936,363.02808,529.0783,363.12045,529.33234C363.1898,529.5632,363.55927,529.81714,363.9287,529.9094C364.3213,529.9787,364.62143,530.1403,364.62146,530.2789C364.62146,530.4174,364.85242,530.7637,365.1064,531.0408C365.38354,531.3178,365.75305,531.872,365.91476,532.28754C366.0995,532.6801,366.33047,533.0726,366.469,533.1649C366.58447,533.2342,366.69995,533.5113,366.69998,533.76526C366.7,533.99615,366.7924,534.204,366.93094,534.204L366.931,534.204C367.04642,534.204,367.16187,534.4118,367.1619,534.6658C367.16193,534.89667,367.30048,535.19684,367.46216,535.2891C367.64688,535.3815,367.83163,535.65857,367.924,535.88947C367.9933,536.09717,368.22415,536.2819,368.40884,536.2819L368.40894,536.2819C368.59366,536.2819,368.8015,536.48975,368.8939,536.72064C368.96323,536.9746,369.33267,537.20544,369.77142,537.2978C370.18704,537.367,370.67197,537.64404,370.85675,537.898C371.04144,538.1519,371.3647,538.35974,371.57248,538.35974L371.57278,538.35974C372.19614,538.35974,372.70404,538.61365,372.70407,538.91376C372.70413,539.30634,372.86575,539.3294,380.62415,539.42096C382.3568,539.4499,383.72223,539.465,384.79565,539.465C387.12683,539.465,388.08087,539.39343,388.4287,539.23535C388.79813,539.07367,389.09827,538.8427,389.09827,538.72723C389.09824,538.6118,389.4676,537.7343,389.90622,536.81067L390.71417,535.10187L391.5916,535.26337C392.05347,535.3558,392.46912,535.4942,392.51532,535.5866C392.5615,535.702,393.04642,535.9098,393.6237,536.07135C394.20096,536.25604,394.6859,536.55615,394.7783,536.78705C394.84317,537.0033,394.94852,537.1586,395.03748,537.1586C395.04355,537.1586,395.04953,537.1579,395.05542,537.15643C395.1051,537.1446,395.16205,537.1391,395.22437,537.1391C395.77045,537.1391,396.72983,537.5636,396.83347,537.89514C396.90277,538.1491,397.1568,538.38007,397.3877,538.47235C397.59552,538.54156,398.0343,539.00336,398.3576,539.5113C398.6578,540.0192,398.98117,540.4349,399.07352,540.4349C399.35068,540.4349,401.3828,542.62823,401.70612,543.25165C401.8909,543.62103,402.1911,543.8981,402.37582,543.8981L402.37595,543.8981C402.5606,543.8981,402.7222,544.0366,402.7222,544.1982C402.72223,544.35986,403.02243,544.61383,403.41498,544.75226C403.78445,544.89087,404.10776,545.16785,404.1078,545.3757C404.1078,545.58344,404.40802,545.79126,404.916,545.8836C405.4009,545.9759,405.77036,546.18365,405.83966,546.46075C405.90897,546.69165,406.1861,546.9456,406.44006,547.01483C406.67102,547.10724,406.8788,547.24567,406.87885,547.36115C406.87885,547.4766,407.41003,548.26166,408.03357,549.09283C408.6802,549.924,409.18826,550.70905,409.18826,550.82446C409.1883,550.963,409.60394,551.12463,410.1119,551.1938C410.61996,551.28613,411.03558,551.4246,411.0356,551.517C411.0356,551.6094,411.45126,551.86334,411.95926,552.0941C412.4673,552.32495,412.92914,552.6944,412.99844,552.9253C413.09082,553.1562,413.2063,553.3409,413.29868,553.3409C413.32996,553.33563,413.36334,553.3332,413.39832,553.3332C413.82803,553.3332,414.4994,553.7062,414.49942,553.9411C414.49945,554.1258,414.70728,554.3336,414.96127,554.4029C415.21527,554.4952,415.7002,554.79535,416.00043,555.1186C416.30063,555.41876,416.647,555.67267,416.76245,555.67267C416.87793,555.67267,417.03958,555.88043,417.1089,556.15753C417.16736,556.39136,417.27518,556.5429,417.37677,556.5429C417.39554,556.5429,417.41412,556.5377,417.43216,556.5269C417.4829,556.4979,417.54788,556.48486,417.62134,556.48486C418.01596,556.48486,418.656,556.8619,418.65607,557.1733C418.65607,557.358,418.81766,557.51965,419.00235,557.51965L419.0025,557.51965C419.18726,557.51965,419.60287,557.79675,419.97232,558.143C420.3187,558.5124,420.6882,558.81256,420.78058,558.81256C420.87296,558.8356,421.05765,558.8587,421.1962,558.8818C421.31165,558.8818,421.4271,559.06647,421.42712,559.27423C421.42715,559.4143,421.4803,559.5145,421.5563,559.5145C421.58054,559.5145,421.6071,559.5044,421.63498,559.48206C421.67072,559.46063,421.7109,559.4502,421.7521,559.4502C421.8439,559.4502,421.94067,559.50183,422.00443,559.5975C422.07373,559.71295,422.35083,559.8283,422.6048,559.8283C422.8819,559.8283,423.13593,560.05914,423.2745,560.4286C423.39505,560.7098,423.55054,560.9037,423.66498,560.9037C423.6821,560.9037,423.69827,560.89935,423.7133,560.8903C423.72134,560.88495,423.73196,560.8823,423.7449,560.8823C424.0652,560.8823,425.81467,562.4737,425.8147,562.8066C425.8147,562.92206,426.06873,563.0837,426.392,563.1529C426.7153,563.2452,426.9693,563.453,426.9693,563.6147C426.96936,563.7994,427.31573,564.0303,427.70825,564.12256C428.1239,564.1918,428.65503,564.4919,428.88596,564.7459C429.05777,564.9558,429.26114,565.08685,429.3656,565.08685C429.38748,565.08685,429.40506,565.0811,429.41705,565.0691C429.45023,565.04425,429.50418,565.03125,429.57047,565.03125C429.68878,565.03125,429.8463,565.07263,429.99432,565.16144C430.31763,565.323,430.4331,565.64624,430.4332,566.4082C430.4333,567.14703,430.52563,567.4472,430.75653,567.4472L430.7566,567.4472C430.9182,567.4472,431.12604,567.655,431.19534,567.909C431.26465,568.1861,431.51868,568.3708,431.77264,568.3708L431.77286,568.3708C432.48856,568.3708,432.97345,568.99414,432.97354,569.8946C432.97357,570.33325,433.06595,570.6796,433.1583,570.6796L433.15833,570.6796C433.2738,570.6796,433.48163,570.93365,433.6202,571.2569C433.78442,571.60345,433.9342,571.7482,434.1834,571.7482C434.24966,571.7482,434.3229,571.73804,434.40533,571.7186C434.5238,571.6913,434.64944,571.6783,434.7667,571.6783C434.94653,571.6783,435.10654,571.7088,435.19043,571.7647C435.5368,571.99554,436.4375,573.7966,436.43756,574.21216C436.43756,574.39685,436.57614,574.67395,436.76093,574.81244C436.92255,574.951,437.13043,575.3897,437.2228,575.7591C437.36145,576.52106,436.11484,579.13043,434.22174,582.017C433.87665,582.54913,433.5674,583.07227,433.3832,583.4303L480.92236,583.4303C480.28598,579.2427,479.8855,577.37085,479.59406,577.37085C479.38623,577.37085,478.69336,576.03174,478.69333,575.593C478.6933,575.4314,478.53168,575.29285,478.34692,575.29285L478.34683,575.29285C478.13907,575.29285,477.9082,575.1081,477.83893,574.8773C477.70035,574.5541,475.87592,572.15283,474.79053,570.85986C474.65198,570.69824,473.8437,569.6824,473.01233,568.5972C472.18094,567.5121,471.41888,566.5885,471.2803,566.5654C471.16486,566.5193,471.07248,566.35767,471.07245,566.196C471.07245,566.0344,470.56442,565.73425,469.91785,565.5035C469.29437,565.2726,468.76328,564.9956,468.76328,564.8801C468.76324,564.7647,468.60162,564.67236,468.3938,564.67236L468.39374,564.67236C467.97803,564.67236,466.61575,563.9567,466.50027,563.6797C466.45407,563.5873,466.29245,563.51807,466.1308,563.51807C465.96918,563.51807,465.64587,563.3334,465.39185,563.10254C465.16095,562.8948,464.6529,562.5022,464.26038,562.27136C463.45212,561.7404,463.12875,561.4864,462.38977,560.79376C462.0665,560.51666,461.72012,560.2858,461.62775,560.2858C461.5123,560.2858,460.65787,559.5701,459.73413,558.66974C458.81046,557.7924,457.9792,557.0536,457.90985,557.0536C457.81747,557.0536,457.63275,556.7996,457.49414,556.49945C457.35556,556.1762,456.98608,555.8992,456.54736,555.82996C456.1317,555.7376,455.83154,555.52985,455.83148,555.322C455.83148,555.13727,455.73914,554.97565,455.62366,554.97565C455.5082,554.97565,455.16174,554.2368,454.88458,553.33636C454.4688,552.04333,454.23785,551.6508,453.70673,551.3737C453.36038,551.1891,453.06018,550.9351,453.06018,550.8427C453.06015,550.7273,452.73685,550.56573,452.3674,550.4734C451.97485,550.3811,451.53613,550.19635,451.37448,550.0579C451.2128,549.89624,450.86646,549.6654,450.63553,549.5269C450.38153,549.38837,449.96582,548.88043,449.7118,548.3725C449.4577,547.8876,449.11133,547.37964,448.97278,547.2873C448.8111,547.195,448.67255,546.941,448.67255,546.77936C448.67252,546.5946,448.58014,546.433,448.4878,546.433C448.27994,546.433,447.5178,544.83984,447.51776,544.42426C447.51773,544.2857,447.21753,543.8239,446.82492,543.4083C446.4554,542.96967,446.1321,542.4848,446.13208,542.3231C446.13208,542.18463,445.99353,542.0461,445.83188,542.0461C445.67023,542.0461,445.39313,541.8383,445.20837,541.5843C445.02362,541.3304,444.74655,541.1226,444.5849,541.1226C444.44635,541.1226,444.23853,540.8918,444.14612,540.6147C444.0537,540.3145,443.8459,539.9913,443.68423,539.8527C443.52258,539.7373,443.17618,539.20624,442.89902,538.6983C442.22925,537.4284,441.92902,536.94354,441.46716,536.41254C441.23624,536.1585,440.936,535.67365,440.77432,535.32733C440.63574,535.0041,440.2201,534.5192,439.8506,534.2884C439.5042,534.03436,439.20404,533.78046,439.20404,533.665C439.204,533.57263,439.08853,533.50336,438.92688,533.50336L438.92685,533.50336C438.41885,533.50336,435.97107,531.00995,435.971,530.525C435.971,530.3172,435.8093,529.8554,435.6245,529.48596C435.43976,529.13965,435.27808,528.44696,435.278,527.98517C435.25482,527.03845,434.76984,526.34576,433.70764,525.7917C433.292,525.5839,432.9687,525.30695,432.9687,525.21454C432.96866,525.09906,432.5299,524.93756,431.97574,524.8452C430.03607,524.52216,429.34332,523.8757,429.15842,522.2132C428.99658,520.7354,428.4654,519.44244,427.98047,519.25775C427.79575,519.1885,427.65717,519.05,427.65717,518.9345C427.65717,518.8191,427.2415,518.3342,426.73343,517.8725C426.2254,517.38763,425.8097,516.949,425.8097,516.85657C425.8097,516.64874,423.5004,514.33997,423.29257,514.33997C423.20023,514.33997,422.96927,514.08606,422.80762,513.7628C422.64597,513.4395,422.39194,513.18555,422.2534,513.18555L422.25336,513.18555C421.93005,513.18555,421.02948,512.3544,420.15195,511.24622C419.75934,510.76135,419.2282,510.09186,418.92798,509.74548C418.62775,509.42224,418.35062,508.86804,418.2813,508.5448C418.18893,508.1985,417.88867,507.80597,417.5885,507.66754C417.2652,507.529,416.965,507.25195,416.89572,507.0672C416.80338,506.88248,416.64175,506.72095,416.48013,506.72095L416.48004,506.72095C416.1106,506.72095,415.2099,505.22015,415.0251,504.3427C414.9327,503.92706,414.7479,503.4884,414.58627,503.373C414.44772,503.23444,414.23984,502.77264,414.17053,502.3109C414.0781,501.73358,413.77786,501.2718,413.20056,500.81006C412.7387,500.44067,412.02286,499.86353,411.63028,499.51715C411.2377,499.1709,410.72964,498.73224,410.49872,498.5244C410.29092,498.33975,409.82925,498.17816,409.45984,498.17816L409.45963,498.17816C408.12036,498.1552,407.03506,497.7397,406.273,496.9317C405.83426,496.46994,405.3494,496.10052,405.1646,496.10052L405.16458,496.10052C404.97986,496.10052,404.77203,496.00824,404.70273,495.89276C404.63342,495.77734,404.28708,495.61566,403.9638,495.54645C403.10944,495.3156,402.71683,494.85388,402.71674,494.09192C402.7167,493.74554,402.62433,493.3299,402.53192,493.21448C402.32407,492.91437,400.7309,492.17572,400.2921,492.17572L400.29205,492.17572C400.13043,492.17572,399.94568,492.10645,399.8995,491.99097C399.78403,491.73694,398.12155,491.02142,397.61346,491.02142L397.61328,491.02142C397.3593,491.02142,396.94376,490.8137,396.6667,490.5597C396.34344,490.25964,395.83554,490.09814,395.2815,490.09814L395.2812,490.09814C394.7963,490.09814,394.40375,489.98273,394.40372,489.86725C394.40372,489.72876,393.94223,489.63647,393.36523,489.63647L393.36414,489.63647C392.5563,489.63647,392.16382,489.49796,391.74823,489.0594C391.19403,488.52838,391.1709,488.34363,391.17062,485.9422C391.17035,483.4485,391.14725,483.35608,390.43134,482.22473C389.854,481.3705,389.53073,481.09344,389.0921,481.09344L389.09186,481.09344C388.37598,481.09344,386.5519,480.40094,386.55188,480.14697C386.55185,480.0315,386.32095,479.9392,386.02078,479.9392C385.2819,479.9162,384.47363,479.15436,384.47357,478.4616C384.4735,478.13834,384.3811,477.86124,384.24258,477.8612L384.2425,477.8612C383.36514,477.8612,383.48032,474.95193,384.4038,474.02826C384.70395,473.72797,385.09647,473.474,385.2812,473.47394C385.4659,473.47394,385.83533,473.28918,386.0662,473.0583C386.96664,472.24994,387.2437,472.08832,387.63626,472.08826C387.86716,472.08826,388.32895,471.83423,388.67526,471.51086C389.02158,471.18762,389.4603,470.93353,389.6681,470.93353C389.8528,470.93347,390.19916,470.74878,390.45316,470.49475C390.68402,470.26385,391.1227,470.00983,391.42288,469.9405C391.74615,469.87122,392.20795,469.59406,392.485,469.31696C392.76202,469.06293,393.08527,468.85504,393.1776,468.85504C393.27,468.85504,393.66254,468.69336,394.03195,468.5086C394.33893,468.3359,394.70972,468.24286,394.91904,468.24286C394.9616,468.24286,394.9975,468.2467,395.0248,468.25452C395.0661,468.27222,395.10587,468.28085,395.14218,468.28085C395.24817,468.28085,395.32498,468.20728,395.32498,468.0697C395.32495,467.90814,395.57892,467.63098,395.90216,467.4693C396.2254,467.30768,396.4794,467.07672,396.4794,466.98438C396.47937,466.8689,396.84882,466.73035,397.2875,466.63794C397.7493,466.5686,398.1418,466.33765,398.21106,466.08368C398.3131,465.7978,399.13736,465.3674,399.53436,465.3674C399.5863,465.3674,399.63095,465.3748,399.6657,465.3908C399.68878,465.3908,400.15057,464.99823,400.65848,464.46704C401.1664,463.95898,401.65128,463.54333,401.7667,463.54333C401.85907,463.54333,402.20544,463.31238,402.52863,463.01215C403.23517,462.38397,403.85825,462.0061,404.1853,462.0061C404.243,462.0061,404.29147,462.01788,404.3296,462.0421C404.37866,462.07486,404.42197,462.09018,404.4574,462.09018C404.522,462.09018,404.56052,462.03925,404.56052,461.94977C404.5605,461.6496,405.85336,460.31024,406.13046,460.31018C406.24594,460.31018,406.61536,460.0561,406.96167,459.73285C407.30798,459.40955,407.6774,459.15546,407.76978,459.15546C407.88522,459.15546,408.09302,458.99384,408.2546,458.80902C408.41623,458.62433,408.67023,458.4627,408.83185,458.46265C408.99347,458.46265,409.5476,458.04694,410.1017,457.53888C410.63275,457.05396,411.2792,456.56897,411.5332,456.47656C411.7872,456.4073,412.27206,456.06085,412.59528,455.73755C413.1956,455.1371,413.819,454.6983,414.46548,454.375C414.62708,454.30573,415.0427,453.98236,415.3659,453.70532C415.68915,453.4051,416.0355,453.15106,416.12787,453.15106C416.24332,453.15106,416.6358,452.8277,416.98215,452.45825C417.35153,452.06567,417.76712,451.76538,417.88257,451.76538C418.02112,451.76538,418.36743,451.53442,418.69067,451.23425C419.4295,450.5645,420.81488,449.9179,421.5307,449.9178C421.85394,449.9178,422.1079,449.82532,422.1079,449.7099C422.1079,449.59442,422.40805,449.38666,422.80057,449.2249C423.17,449.0633,423.49326,448.8554,423.49326,448.76306C423.49323,448.67072,424.00122,448.5321,424.60153,448.4397C425.22498,448.3703,425.91766,448.11627,426.17163,447.8853C426.4256,447.6775,426.8412,447.37726,427.09515,447.2387C427.53387,446.98468,427.62616,446.2458,427.39508,444.49084L427.3026,443.79816L428.80353,443.84418C434.06818,444.02838,436.76978,444.21277,436.83905,444.39746C436.88522,444.5129,437.32367,444.60516,437.83145,444.60516L437.8326,444.60516C438.3172,444.60516,438.73248,444.6744,438.7325,444.76678C438.7325,444.88217,439.171,444.9745,439.7018,444.9745L439.70233,444.9745C442.26538,445.0434,445.89063,445.3894,445.89063,445.55103C445.89066,445.6994,446.38635,445.7672,446.96396,445.7672C447.73483,445.7672,448.65158,445.64642,448.73077,445.43524C448.8,445.27362,449.0308,444.07288,449.23846,442.77985C449.6769,440.1936,449.65323,434.97522,449.19138,434.42108C449.0528,434.2364,448.868,433.58978,448.77557,432.96643C448.70624,432.34296,448.54453,431.67334,448.45215,431.4655C448.175,430.9345,447.59753,428.97186,447.2741,427.56335C447.11243,426.91687,446.90454,426.29346,446.78906,426.22418C446.67358,426.1549,446.58124,425.90094,446.58118,425.67004C446.58118,425.36987,446.25787,425.04663,445.65747,424.74652C444.81827,424.3157,444.3578,424.28586,435.5894,424.28586C435.43066,424.28586,435.26926,424.28586,435.10507,424.2859L435.05212,424.2859C429.73654,424.2859,421.07144,424.19455,415.75525,424.05713C410.42133,423.91913,399.86896,423.71246,392.3184,423.59784C377.74823,423.34543,377.1248,423.2993,376.5705,422.2372C376.17786,421.52145,376.17746,417.94247,376.56998,417.54984C376.7316,417.38815,376.84702,417.01877,376.847,416.69553C376.84695,416.34915,377.1701,415.4716,377.53946,414.70956C377.9088,413.9476,378.232,413.16245,378.232,412.97775C378.23196,412.79306,378.39352,412.3312,378.57825,411.9617C379.03995,411.10733,379.06268,407.6207,378.60077,406.90488C378.43912,406.62784,378.23123,406.11984,378.13885,405.77353C378.00024,405.19626,378.0926,405.10385,379.20087,404.57266C379.87045,404.27243,380.84024,403.8798,381.3482,403.7181C381.85617,403.5565,382.47958,403.2792,382.73358,403.11758C382.98755,402.95596,383.40314,402.8174,383.68024,402.81735C383.9573,402.81735,384.48837,402.67874,384.8578,402.49393C386.05844,401.89346,387.25912,401.4315,387.5824,401.43143C387.74402,401.43143,388.1827,401.29288,388.55212,401.10812C388.8985,400.92337,390.07605,400.43832,391.1613,400.04572C392.2465,399.65308,393.37787,399.1911,393.7011,399.0063C394.6016,398.52136,395.1556,397.18207,395.0169,395.79663C394.832,394.01862,394.50858,392.35626,394.30072,391.98676C394.09286,391.66357,393.60776,389.747,393.26117,387.9229C393.16873,387.41492,392.96088,386.7685,392.82233,386.49146C392.66064,386.21436,392.54514,385.66016,392.5451,385.26764C392.54504,384.87506,392.4295,384.32098,392.26785,384.04388C392.03693,383.6052,391.59802,381.91965,391.2515,380.18796C391.1822,379.8646,390.99738,379.07956,390.81256,378.45615C390.18887,376.33188,389.24173,372.45273,389.1262,371.64462C389.08,371.2059,388.94138,370.79025,388.8721,370.72104C388.73352,370.6055,385.916,366.03397,384.85364,364.18686C384.59958,363.77133,384.23007,363.1248,383.97604,362.73227C383.53726,362.0165,383.53726,362.0165,383.999,361.48538C384.253,361.18515,384.46072,360.8157,384.46072,360.631C384.4607,360.46933,384.55304,360.33078,384.66852,360.33072C384.9918,360.33072,385.15314,357.95242,384.89905,357.00577C384.64496,356.08218,384.20618,355.4819,383.81366,355.4819L383.8136,355.4819C383.69815,355.4819,383.46725,355.32028,383.3056,355.1356C383.14395,354.95084,382.82065,354.78928,382.58975,354.78928L382.58954,354.78928C382.33566,354.78928,382.15103,354.67383,382.151,354.55844C382.151,354.4199,381.89716,354.3276,381.57407,354.3276L381.5735,354.3276C381.25034,354.3276,380.99646,354.2121,380.99643,354.09677C380.99643,353.95825,380.2354,353.86606,379.19742,353.86606L379.19443,353.86606C377.41663,353.86606,375.22372,353.3353,375.22366,352.9197C375.22366,352.80438,374.80832,352.712,374.30054,352.712L374.30005,352.712C373.79208,352.71207,373.37643,352.8046,373.37643,352.91995C373.37646,353.15085,371.3215,353.8669,370.6288,353.86703C370.3517,353.86703,370.1439,353.95938,370.1439,354.098C370.14392,354.21335,369.93613,354.3289,369.68213,354.3289C369.42813,354.32895,369.22034,354.42123,369.22034,354.55984C369.22037,354.67526,368.98947,354.7908,368.6893,354.7908C368.4122,354.79086,367.9735,354.95248,367.7426,355.1373C367.48865,355.322,367.04996,355.48373,366.74976,355.4838C366.44955,355.4838,366.21872,355.5762,366.21872,355.7147C366.21875,355.85324,364.9949,355.9457,363.00916,355.9459C361.2312,355.94608,359.75342,356.03867,359.70724,356.15408C359.61328,356.38245,359.26935,356.51703,358.92987,356.51703C358.68564,356.51703,358.4437,356.44736,358.29874,356.29282C358.0909,356.10806,357.7676,355.9465,357.5598,355.9465C357.352,355.9465,357.02872,355.80807,356.86707,355.6464C356.6823,355.50797,356.35904,355.2308,356.1743,355.0693C355.82788,354.76913,355.82788,354.69986,356.1511,354.3535C356.35892,354.12253,356.52054,353.82236,356.5205,353.6838C356.5205,353.5452,356.659,353.29123,356.82062,353.12955C357.19003,352.7601,358.5983,350.65872,358.5983,350.4971C358.59827,350.42776,358.7599,350.21994,358.9446,350.03525C359.82187,349.15768,359.10605,347.86484,357.72086,347.86484L357.7195,347.86484C356.9353,347.86484,356.77377,347.79547,356.65833,347.28775C356.56592,346.9645,356.61206,346.50272,356.75058,346.2487C356.86603,346.01773,356.9814,345.67136,356.9814,345.48666C356.98135,345.02487,355.84982,343.89346,355.0647,343.52414C354.7183,343.38565,354.3719,343.08554,354.3026,342.9008C354.21027,342.7161,353.95624,342.55447,353.7253,342.55447C353.49442,342.55447,353.28662,342.43906,353.2866,342.3237C353.2866,342.1851,353.148,342.0928,352.96332,342.0928L352.96326,342.0928C352.77847,342.0928,352.4322,341.83875,352.1782,341.5156C351.9241,341.19235,351.55463,340.9384,351.34683,340.9384L351.34656,340.9384C351.13885,340.9384,350.9774,340.86917,350.9774,340.7537C350.9774,340.6614,350.65408,340.45358,350.2615,340.2689C349.869,340.10727,349.31473,339.71487,349.01456,339.4147C348.71432,339.11453,348.29868,338.86057,348.11395,338.86057C347.92923,338.86057,347.58286,338.60666,347.32883,338.28342C347.0748,337.96024,346.70532,337.70633,346.4975,337.70633C346.28967,337.70633,346.12805,337.61398,346.12802,337.49857C346.12802,337.38303,345.8278,337.1752,345.45834,337.0599C345.11194,336.94437,344.5347,336.5519,344.2114,336.2288C343.88812,335.90552,343.42633,335.6285,343.19543,335.6285L343.19534,335.6285C342.96445,335.6285,342.5026,335.3746,342.15616,335.05136C341.8098,334.72812,341.4172,334.47415,341.2787,334.47415C341.14014,334.47415,340.7707,334.24332,340.47046,333.9432C339.91626,333.43527,339.89313,333.366,340.147,332.04977C340.40085,330.68747,340.40085,330.6644,339.73114,330.15646C339.3848,329.8563,338.85364,329.4177,338.5765,329.1636C338.29947,328.90973,337.93008,328.702,337.76837,328.702L337.7683,328.702C337.6067,328.702,337.2141,328.49423,336.91388,328.26334C336.42902,327.8939,336.38275,327.70914,336.4981,326.9241C336.7289,325.56174,336.38242,324.68436,334.21155,321.05942C330.95523,315.63354,330.35477,314.8485,328.2303,313.23242C327.58368,312.74756,326.29047,311.59326,325.34363,310.66968C324.39685,309.76923,323.28845,308.86884,322.91895,308.70728C322.04153,308.36096,316.33823,306.99933,315.66833,306.99933L315.66812,306.99933C315.39117,306.99933,315.18344,306.86075,315.1834,306.65295C315.18338,306.4682,315.27573,306.30664,315.41428,306.30664C315.52972,306.30658,315.6451,305.7293,315.64502,305.03662C315.64496,304.34387,315.73727,303.7666,315.8758,303.7666C315.99127,303.7666,316.1067,303.46637,316.10663,303.12006C316.1066,302.6582,316.2682,302.3581,316.6838,302.1502C317.00702,301.98853,317.26102,301.75757,317.261,301.64215C317.261,301.5234,317.3518,301.46524,317.48392,301.46524C317.63446,301.46524,317.8386,301.54074,318.02307,301.6883C319.40845,302.8194,319.82416,303.07343,320.23972,303.07343L320.24014,303.07343C320.51706,303.07343,320.7248,303.16586,320.7248,303.2812C320.7248,303.39673,320.93262,303.58142,321.18665,303.65063C321.4406,303.71985,321.64844,303.9276,321.64847,304.06622C321.64847,304.22784,321.92563,304.36633,322.27194,304.3894C324.3963,304.57385,325.4816,304.78156,325.6894,305.03558C325.92032,305.31265,327.72104,305.84338,328.43704,305.84338L328.4373,305.84338C328.6451,305.84338,328.85287,305.58936,328.9452,305.26617C329.01443,304.9428,329.17606,304.68884,329.2915,304.68884C329.40695,304.68878,329.49927,304.1115,329.49918,303.41882C329.4991,302.72607,329.59143,302.14886,329.72992,302.14886C329.86844,302.14886,329.96072,301.45612,329.96063,300.55554C329.96048,299.21637,330.02975,298.91608,330.35303,298.82373C330.79172,298.68506,331.57666,297.46124,331.5766,296.93018C331.5766,296.74548,331.6689,296.60687,331.78436,296.60687C332.13074,296.60687,332.50003,295.24445,332.4999,294.0437C332.49985,293.44342,332.59213,292.8662,332.73068,292.7968C332.84613,292.72754,332.9615,291.80396,332.96136,290.7649C332.96118,288.94073,333.46893,286.90863,333.90768,286.90857C334.20786,286.90857,334.16147,285.3385,333.8844,285.2461C333.7458,285.19995,333.58414,284.5534,333.51477,283.79144C333.44543,283.02948,333.28372,282.17523,333.14514,281.89813C332.79868,281.20538,333.02957,280.76666,333.93002,280.3509C334.25287,280.18945,334.4567,280.10297,334.69754,280.10297C335.00787,280.10297,335.37964,280.24658,336.14673,280.55847C336.93176,280.88174,337.71677,281.13562,337.90164,281.13562L337.9017,281.13562C338.0864,281.13562,338.2711,281.29724,338.3635,281.48187C338.43283,281.6666,338.77905,281.82813,339.1484,281.82813L339.14896,281.82813C339.49524,281.82813,339.88757,281.92056,340.00302,282.0359C340.14154,282.1283,340.74194,282.35913,341.3885,282.52063C342.01196,282.70532,342.58923,282.88995,342.65854,282.98236C342.72778,283.05157,343.2358,283.30548,343.81308,283.53632C344.39038,283.7672,345.03693,284.04425,345.24478,284.1596C345.4757,284.27515,345.77585,284.36737,345.93747,284.36737C346.09918,284.3905,346.65332,284.57513,347.16138,284.8291C347.6693,285.08304,348.24646,285.29077,348.4313,285.29077L348.4314,285.29077C348.6161,285.29077,349.28577,285.56775,349.9323,285.86786C350.5558,286.19104,351.364,286.4449,351.71036,286.4449L351.71072,286.4449C352.08,286.4449,352.35687,286.5372,352.3569,286.6526C352.3569,286.83734,353.4884,287.299,355.35883,287.8761C355.79752,287.99152,356.2132,288.17615,356.28244,288.26855C356.4672,288.49945,359.35367,289.51514,360.20798,289.63037C360.6467,289.67664,361.08545,289.86127,361.17783,290.0229C361.2702,290.1845,362.10153,290.5539,363.02515,290.85388C363.94882,291.15405,364.84937,291.52332,365.01105,291.685C365.17264,291.8466,365.51892,291.98505,365.7729,291.98505L365.77307,291.98505C366.02704,291.98505,366.53503,292.1466,366.88144,292.33124C367.25092,292.516,367.9667,292.7237,368.4978,292.81598C369.0289,292.9084,369.44452,293.02374,369.44455,293.11615C369.44455,293.25464,370.27588,293.6471,371.823,294.2704C372.16925,294.40884,372.72327,294.52417,373.02347,294.52417L373.0237,294.52417C373.34702,294.52417,373.60098,294.66266,373.601,294.80127C373.601,294.9629,374.43234,295.35535,375.44836,295.67847C376.4644,295.97852,377.29565,296.32483,377.2957,296.41718C377.2957,296.53265,377.52658,296.60187,377.82678,296.60187L377.82697,296.60187C378.10403,296.60187,378.54266,296.74033,378.7966,296.925C379.05063,297.08667,379.53555,297.29443,379.88193,297.38666C380.25137,297.45587,380.52847,297.6175,380.52847,297.70996C380.5285,297.78833,380.66702,297.83475,380.8789,297.83475C380.97894,297.83475,381.09534,297.8244,381.2212,297.8022C381.3299,297.78406,381.42914,297.77542,381.51642,297.77542C381.76282,297.77542,381.9139,297.84436,381.91394,297.96375C381.91397,298.10223,382.0756,298.2177,382.2603,298.2177L382.2605,298.2177C382.44513,298.2177,382.6067,298.31003,382.60672,298.4485C382.60672,298.56403,382.74527,298.67938,382.93002,298.67938L382.93008,298.67938C383.09183,298.67938,383.83063,298.93338,384.5464,299.25653C385.26224,299.57965,386.04733,299.83362,386.30133,299.83362L386.30148,299.83362C386.55548,299.83362,386.94794,299.99515,387.2019,300.20294C387.45593,300.4107,388.24103,300.80316,389.00302,301.05713C389.74194,301.31097,390.38852,301.58795,390.4578,301.7035C390.57327,301.8651,391.77405,302.3499,393.45972,302.90387C393.89844,303.0423,394.3141,303.227,394.38336,303.2962C394.59122,303.52716,397.1082,304.6814,397.40836,304.6814L397.40845,304.6814C397.54706,304.6814,397.80096,304.81992,397.93948,304.98145C398.07806,305.14307,398.7708,305.53558,399.46353,305.83563C400.15628,306.15887,400.77975,306.45892,400.84906,306.55133C401.1031,306.85144,403.6199,307.91327,404.08185,307.91327L404.082,307.91327C404.336,307.91327,404.77463,308.121,405.05173,308.375C405.3874,308.6866,406.00305,308.84888,406.57892,308.84888C407.11237,308.84888,407.61163,308.70966,407.82257,308.42096C407.9842,308.21313,408.33054,307.91278,408.5614,307.7743C408.8154,307.63568,409.09244,307.3817,409.16168,307.19702C409.254,307.0122,409.508,306.5042,409.71573,306.0655C410.1313,305.21106,410.31567,302.18622,410.0154,301.33185C409.8537,300.82388,408.1451,299.8313,407.4754,299.8313L407.47528,299.8313C407.2444,299.8313,407.01346,299.66968,406.94415,299.485C406.8518,299.2772,406.50555,299.13867,406.04388,299.13867L406.04315,299.13867C405.6046,299.13867,405.2123,299.04642,405.14304,298.93103C405.07376,298.81555,404.54266,298.6078,403.9654,298.4693C403.3881,298.33087,402.857,298.05383,402.7877,297.86908C402.69534,297.63824,402.32602,297.5229,401.74902,297.5229L401.74817,297.5229C401.26346,297.5229,400.84805,297.40738,400.84805,297.29205C400.84802,297.1535,400.54807,297.06128,400.17877,297.06128L400.1784,297.06128C399.80896,297.06128,399.20856,296.89966,398.8622,296.71497C398.49274,296.53033,397.9616,296.3687,397.68454,296.3687L397.68442,296.3687C397.10712,296.3687,395.9989,295.90707,395.99887,295.6762C395.99887,295.58392,395.42157,295.44537,394.70578,295.35315C393.98993,295.28394,392.95084,295.00702,392.41974,294.7531C391.86557,294.49908,391.2421,294.29138,391.05734,294.29138C390.84955,294.29138,390.6879,294.17596,390.68787,294.06055C390.68787,293.92203,390.38785,293.8296,390.04166,293.8296L390.0411,293.8296C389.6717,293.8296,389.18692,293.66806,388.93295,293.48346C388.70206,293.2988,388.2173,293.1372,387.84787,293.1372L387.84766,293.1372C387.5013,293.1372,387.0164,292.92944,386.76236,292.67554C386.50833,292.4215,386.0927,292.21375,385.8156,292.21375L385.81546,292.21375C385.1918,292.21375,383.09085,291.52127,382.9292,291.2674C382.85995,291.152,382.60605,291.05963,382.35214,291.05963L382.3519,291.05963C382.12097,291.05963,381.91318,290.96735,381.91318,290.87488C381.91315,290.75952,381.40515,290.55176,380.75858,290.3902C380.1351,290.22864,379.55786,289.9978,379.46545,289.88232C379.3962,289.76694,379.09616,289.67462,378.7961,289.67462L378.79562,289.67462C378.49548,289.67462,378.10306,289.51303,377.89523,289.32837C377.71054,289.14365,377.4335,288.98206,377.27185,288.98206L377.2717,288.98206C376.6251,288.98206,374.29297,287.96643,374.29294,287.68927C374.29294,287.48157,374.016,287.36615,373.48517,287.36615L373.48474,287.36615C373.02292,287.36615,372.23785,287.15845,371.72986,286.9276C371.22183,286.67365,370.50598,286.39667,370.1365,286.32745C369.744,286.23505,369.4438,286.09662,369.44376,285.98114C369.44376,285.86572,369.09738,285.72723,368.68176,285.63483C367.85046,285.47333,367.18085,285.21936,365.93387,284.573C365.47205,284.34216,364.91785,284.1344,364.71002,284.1344L364.70984,284.1344C364.5251,284.1344,364.17883,284.0421,363.94803,283.90363C363.53238,283.6958,362.49323,283.23413,361.17703,282.7494C360.7845,282.58783,360.43808,282.38007,360.43808,282.26453C360.43808,282.1492,360.1842,282.05676,359.8611,282.05676L359.85968,282.05676C359.28336,282.05676,359.14407,282.01022,357.7133,281.2951C357.27463,281.08743,356.7898,280.9027,356.605,280.9027L356.60492,280.9027C356.4202,280.9027,356.28165,280.78717,356.28162,280.6718C356.28162,280.5332,356.0507,280.44092,355.75052,280.44092L355.7504,280.44092C355.47327,280.44092,354.84995,280.23325,354.36502,280.00238C353.90323,279.77155,353.25668,279.4945,352.93338,279.4253C352.61008,279.3329,352.35608,279.17126,352.35608,279.05585C352.35605,278.91736,352.10208,278.825,351.7788,278.825L351.77847,278.825C351.45523,278.825,351.0167,278.73273,350.78586,278.59424C350.578,278.47882,350.0008,278.2249,349.51584,278.04016C349.05402,277.85547,348.66144,277.5785,348.66144,277.46307C348.6614,277.32455,348.40753,277.20905,348.08438,277.20905L348.0839,277.20905C347.7837,277.20905,347.22968,277.09378,346.8834,276.9552C346.53705,276.81677,346.02902,276.609,345.775,276.4936C345.521,276.40125,345.08224,276.2397,344.78207,276.17035C344.505,276.07806,344.27408,275.9395,344.27408,275.82416C344.27408,275.70862,343.92767,275.54694,343.51202,275.47778C343.11948,275.3855,342.19583,275.0393,341.50308,274.73914C340.81033,274.41595,339.81738,273.97736,339.3094,273.74652C338.8014,273.53876,338.01627,273.16937,337.5313,272.9616C337.06952,272.75385,336.58456,272.59222,336.46912,272.59222C336.3306,272.59222,336.19205,272.523,336.14584,272.4076C336.05344,272.19983,334.41394,271.43805,334.02142,271.43805L334.02133,271.43805C333.83658,271.43805,333.58267,271.2764,333.42102,271.09167C333.25943,270.907,332.95932,270.74548,332.7515,270.74548L332.75137,270.74548C332.54358,270.74548,332.1279,270.607,331.80466,270.44537C331.48135,270.28375,330.6962,269.96063,330.07272,269.7298C328.54874,269.19885,327.41724,268.59857,327.4172,268.36768C327.4172,268.2754,327.20935,267.95203,326.95535,267.69812C326.53967,267.23645,326.23947,267.1902,324.23062,267.16736C322.82208,267.1444,321.48282,266.98303,320.60532,266.72906C319.84335,266.49817,318.7812,266.22125,318.227,266.1059C317.69592,266.01355,317.02615,265.78275,316.726,265.62106C316.4489,265.48257,315.80237,265.27487,315.29434,265.18253C314.11673,264.97482,310.30664,263.8439,309.98334,263.61295C309.8679,263.52054,309.17517,263.24362,308.4824,263.0128C307.78967,262.78195,306.84293,262.45877,306.40417,262.29715C305.96545,262.1356,305.20346,261.9279,304.7185,261.83554C303.58707,261.65097,302.825,260.93527,302.61707,259.87308C302.36295,258.46463,301.04663,257.3795,299.1763,257.03336C298.71448,256.941,298.32196,256.80252,298.32196,256.6871C298.32193,256.5947,297.7677,256.36386,297.075,256.20224C296.38226,256.0408,295.55096,255.67142,295.1815,255.3713C294.83508,255.07114,294.48874,254.81723,294.39636,254.81723C294.304,254.81723,294.1654,254.33237,294.09604,253.7551C294.04984,253.15475,293.86502,252.62357,293.7496,252.53128C293.61105,252.439,293.42627,251.90793,293.33383,251.35367C293.2183,250.59177,292.96423,250.1069,292.40997,249.5759C291.97125,249.16031,291.62485,248.72165,291.62485,248.58304C291.62482,248.46765,291.46326,248.3522,291.2786,248.3522L291.27844,248.3522C291.07065,248.3522,290.8628,248.19058,290.79352,248.00595C290.70114,247.8212,290.53946,247.65958,290.37784,247.65958C290.2393,247.63657,289.916,247.3594,289.66196,247.03629C289.40796,246.71292,288.96915,246.20505,288.66898,245.92795C288.39185,245.65091,288.16092,245.32773,288.16092,245.21219C288.1609,244.9813,287.58353,244.47336,286.8215,244.01169C286.50623,243.84096,286.01157,243.745,285.6437,243.745C285.36493,243.745,285.15897,243.8001,285.15897,243.91953C285.15897,244.0107,284.31833,244.04965,282.9899,244.04965C278.5983,244.04965,268.87573,243.62395,266.5711,243.25192C265.80905,243.1365,263.5231,242.92899,261.49112,242.81381C259.45917,242.69852,256.8499,242.49094,255.67227,242.35257C254.49532,242.23734,252.67247,242.12216,251.58699,242.12216L251.58527,242.12216L249.62259,242.12234L249.02216,241.31424C248.46786,240.59848,248.42169,240.45999,248.6987,239.74411C249.04494,238.75125,248.86015,238.19717,248.1445,238.19717L248.14426,238.19717C247.38231,238.19717,246.89738,237.61993,247.26678,237.18124C247.4284,236.99643,247.52075,236.55777,247.47449,236.18826C247.40512,235.61105,247.3128,235.54178,246.38919,235.47263C246.15627,235.45561,245.97786,235.44418,245.8426,235.44418 Z M303.21866,266.13052C304.16513,266.13052,304.95,266.29202,305.48105,266.56906C307.79013,267.74634,309.77594,268.66983,310.03006,268.66983L310.0301,268.66983C310.19168,268.66983,310.33026,268.76212,310.33026,268.8776C310.3303,269.08536,311.2078,269.4778,312.2238,269.68552C313.49384,269.9625,312.84735,270.90915,310.4692,272.1794C309.8227,272.54898,308.96838,272.8262,308.55276,272.82626C308.16022,272.82632,307.7446,272.91867,307.67532,273.05716C307.60608,273.1727,307.28287,273.28812,307.00574,273.28818C306.70557,273.28818,306.17447,273.4268,305.8282,273.6116C305.5562,273.75894,305.37878,273.83398,305.21402,273.83398C305.04306,273.83398,304.8857,273.7532,304.65054,273.58865C304.35037,273.4039,304.09628,273.0576,304.09625,272.82675C304.09622,272.61893,303.9115,272.22635,303.68057,271.9493C302.77994,270.84103,302.4797,270.40244,302.47968,270.17154C302.47964,270.00986,301.76376,269.38644,300.8632,268.76315C299.316,267.678,298.85413,267.05466,299.59302,267.0546C299.77774,267.0546,299.93936,266.98532,299.93936,266.86978C299.93933,266.54654,301.78653,266.1307,303.2181,266.13052 Z M315.6542,309.71237C315.7899,309.71237,316.03812,309.81625,316.523,310.02405C317.07724,310.278,317.81622,310.64734,318.13953,310.90143C318.48587,311.13226,319.31717,311.5016,320.0099,311.73236C320.67953,311.94012,321.76483,312.56342,322.43457,313.09454C323.88937,314.2719,325.80603,315.54175,327.19153,316.2343C328.41537,316.8576,330.84015,319.25873,331.4175,320.3901C331.64847,320.8287,331.90256,321.35977,332.018,321.54453C332.13348,321.72928,332.54922,322.60666,332.988,323.50705C333.40375,324.3845,333.84253,325.14645,333.9349,325.19254C334.05035,325.23874,334.1197,325.4235,334.11972,325.6082C334.11975,325.83914,333.81955,325.93155,333.08066,325.9316L333.0802,325.9316C332.50314,325.9316,332.04153,325.81622,332.04153,325.70084C332.04153,325.56244,330.8432,325.4703,328.93,325.4703L328.9243,325.4703C327.00778,325.47055,325.80713,325.56296,325.80713,325.7015C325.80713,325.81693,325.59937,325.9324,325.3453,325.93246C325.09137,325.93246,324.88354,326.0248,324.88358,326.16342C324.88358,326.2789,324.6296,326.39432,324.30634,326.39438C323.98303,326.39438,323.72903,326.27902,323.72903,326.16354C323.729,326.025,323.52133,325.9327,323.26743,325.9327L323.26718,325.9327C323.01318,325.9327,322.8054,325.84036,322.80536,325.74802C322.80536,325.6556,322.4359,325.42477,321.97406,325.26328C321.5353,325.10165,321.0966,324.82455,321.02725,324.63992C320.958,324.45517,320.77325,324.31662,320.58853,324.31662L320.5885,324.31662C320.12674,324.31662,320.08035,322.90817,320.5191,322.7465C320.77307,322.65408,320.79587,320.16037,320.5419,320.16037C320.24173,320.13724,318.64838,318.6366,318.64835,318.35956C318.64832,318.19788,318.53284,318.08246,318.4174,318.08246C318.27884,318.08246,318.18643,317.8285,318.1864,317.52838C318.18637,317.15887,318.02475,316.9049,317.72452,316.81256C317.1472,316.62787,315.94638,315.5428,316.31583,315.54272C316.75455,315.54266,316.59274,314.27264,316.10782,313.9264C315.8538,313.7417,315.64594,313.48773,315.64594,313.3261C315.6459,312.9566,314.9531,312.2409,314.19107,311.87158C313.77542,311.64075,313.56757,311.3636,313.56754,310.9942C313.56747,310.5324,313.68295,310.46307,314.46802,310.46295C315.18384,310.4629,315.39163,310.37054,315.46082,310.0241C315.49545,309.81628,315.51855,309.71237,315.6542,309.71237 Z M234.18147,355.72095C234.2719,355.72095,234.38306,355.7944,234.48766,355.95996C234.55692,356.07535,234.88002,356.1908,235.20317,356.1908L235.20343,356.1908C235.50363,356.1908,235.75763,356.28308,235.75766,356.42163C235.75766,356.53705,235.87314,356.65253,235.98862,356.65253L235.98865,356.65253C236.31195,356.65253,237.48961,357.85306,237.88223,358.5688C238.04388,358.89203,238.41342,359.5617,238.71362,360.09265C238.99075,360.60077,239.33716,361.03937,239.4526,361.03937L239.45265,361.03937C239.56813,361.03937,239.72972,361.2933,239.82211,361.61658C239.89143,361.9398,240.05302,362.19373,240.1685,362.19373L240.16855,362.19373C240.284,362.19373,240.3764,362.28613,240.3764,362.40155C240.37643,362.5401,240.6766,363.07117,241.02304,363.6253C241.39255,364.17944,241.90063,364.9875,242.13159,365.4262C242.36252,365.86493,242.70895,366.37286,242.8706,366.53455C243.03232,366.71924,243.10153,366.95013,243.03235,367.06555C242.93997,367.18097,242.98611,367.27332,243.07849,367.27332C243.33249,367.27332,245.22629,370.39026,246.0346,372.12207C246.35794,372.81476,247.07391,374.10773,247.65128,375.00815C248.20557,375.88553,248.8522,376.99387,249.10626,377.4326C249.75293,378.61002,251.48495,380.89584,251.73895,380.89584L251.739,380.89584C251.85445,380.89584,252.03914,381.12665,252.13153,381.40378C252.4549,382.23495,251.85458,382.51212,249.8226,382.51236C248.82974,382.51248,247.9523,382.6049,247.88309,382.7435C247.78975,382.89285,247.5418,382.96674,247.17882,382.96674C246.64369,382.96674,245.8586,382.80612,244.95053,382.48984C243.38031,381.95886,242.6875,381.3817,242.24866,380.1811C242.087,379.74237,241.85602,379.2343,241.74054,379.04962C241.62506,378.86493,241.46344,378.5417,241.3941,378.35693C241.32483,378.17218,241.04767,377.59503,240.77054,377.08704C240.4241,376.44055,240.28549,375.67853,240.23917,374.40857C240.16968,372.3767,239.5922,370.55255,237.67523,366.11945C236.6359,363.7412,234.69571,358.49994,234.02586,356.23712C233.93959,355.92087,234.03232,355.72095,234.18147,355.72095 Z M249.24132,371.26138C249.34262,371.26138,249.74551,371.47968,250.16779,371.7752C250.62964,372.0984,251.09146,372.35242,251.1838,372.35242L251.18382,372.35242C251.2763,372.35242,252.17683,372.791,253.19278,373.32196C255.34036,374.43005,256.26398,374.68396,258.61926,374.82224C260.46652,374.93753,261.06686,375.19144,260.44345,375.6533C260.1895,375.86118,260.05103,376.50772,259.93573,377.9855C259.86664,379.11697,259.70505,380.10983,259.58963,380.17923C259.47418,380.24844,259.31262,380.87192,259.22034,381.56454C259.03577,382.90396,258.64334,383.85062,258.0661,384.3356C257.91245,384.4657,257.783,384.52917,257.61887,384.52917C257.4624,384.52917,257.27444,384.47147,257.00397,384.3588C256.6345,384.19724,256.31122,384.01248,256.31122,383.92014C256.31122,383.8278,256.03403,383.45834,255.66458,383.06595C255.01794,382.3502,254.83319,382.09622,253.42447,380.08743C252.98566,379.44095,252.36212,378.63284,252.03882,378.26346C251.71552,377.89407,251.46152,377.4554,251.46149,377.27066C251.46149,377.10898,251.36908,376.9705,251.2767,376.9705L251.27669,376.9705C251.18431,376.9705,250.97646,376.37012,250.81479,375.63126C250.65305,374.91556,250.21417,373.64557,249.84464,372.83746C249.452,372.0293,249.17484,371.31348,249.22101,371.26727C249.22498,371.2633,249.23181,371.26138,249.24132,371.26138 Z M388.42804,437.47144C388.6866,437.47144,388.96732,437.47284,389.2719,437.4755C391.14224,437.4984,392.96643,437.5675,393.35898,437.61365C393.72842,437.6828,394.12094,437.8214,394.19025,437.9599C394.25952,438.07532,395.20627,438.2138,396.26843,438.2599C399.0393,438.375,403.17252,438.88257,403.17255,439.1134C403.17255,439.2058,403.33423,439.29816,403.51895,439.29816L403.51913,439.29816C403.70377,439.29816,403.86533,439.39047,403.86533,439.4828C403.86536,439.57513,404.55807,439.66748,405.4124,439.69043C408.66818,439.78247,411.09268,440.0362,411.3929,440.31323C411.55457,440.47485,412.5475,440.68262,413.60965,440.77484C414.6718,440.86713,415.5493,441.02856,415.59546,441.14404C415.64166,441.28256,416.1725,441.39795,416.74954,441.39795L416.75,441.39795C419.15143,441.46692,419.798,441.90558,418.7821,442.78314C418.4589,443.08337,418.1819,443.45276,418.1819,443.61444C418.18192,443.776,418.08954,443.91467,417.99716,443.91467C417.697,443.91467,416.9582,444.6306,416.1963,445.6466C415.8269,446.15466,415.34207,446.7782,415.1112,447.0091C414.9034,447.26306,414.71872,447.54022,414.71875,447.65564C414.71875,447.74805,414.55713,447.8404,414.37238,447.8404C414.18768,447.84045,414.0261,447.979,414.0261,448.16376C414.02612,448.34845,413.70288,448.81024,413.33347,449.1798C412.94098,449.5724,412.64087,449.9649,412.64087,450.05725C412.6409,450.31128,409.6856,453.1518,409.4316,453.1518C409.15454,453.15186,407.09973,455.25323,407.09976,455.50726C407.09976,455.62268,406.9612,455.69202,406.79956,455.69202C406.4994,455.69202,405.50662,456.5465,404.97562,457.23926C404.814,457.47015,404.30606,457.86273,403.86737,458.09375C403.42868,458.34778,402.85144,458.78656,402.59747,459.08673C402.34354,459.38702,402.04337,459.61792,401.951,459.61798C401.85864,459.61798,401.51233,459.89502,401.16602,460.24146C400.51956,460.88806,399.91922,461.32678,399.24966,461.62708C399.06494,461.71948,398.64932,462.01965,398.3261,462.3199C398.00287,462.62012,397.61035,462.85107,397.44873,462.85114C397.2871,462.85114,396.84842,463.15137,396.479,463.54388C396.10962,463.9134,395.67093,464.23676,395.50928,464.23676C395.34766,464.23676,395.0013,464.39838,394.77042,464.58313C394.51648,464.76794,394.1239,464.92963,393.893,464.92963C393.6621,464.92963,393.47742,465.02203,393.47742,465.16058C393.47745,465.27606,393.08493,465.5531,392.60004,465.78406C392.13828,465.99194,391.6072,466.31525,391.4456,466.45386C391.30707,466.61554,390.96072,466.82336,390.70673,466.89264C390.4528,466.96198,390.24493,467.12354,390.24496,467.239C390.24496,467.3545,389.87555,467.5161,389.43683,467.60852C388.9981,467.67786,388.55942,467.83954,388.49014,467.95502C388.42093,468.07043,388.1669,468.16284,387.9129,468.1629C387.68204,468.1629,387.4742,468.25525,387.4742,468.3476C387.47424,468.46307,387.03555,468.74017,386.4814,468.99426C385.95035,469.22522,385.46548,469.4793,385.3962,469.54852C385.23074,469.75543,385.0282,469.85577,384.82385,469.85577C384.57202,469.85577,384.31744,469.70334,384.1262,469.41016C383.826,468.94836,383.77972,468.2326,383.8256,465.32318C383.8484,462.73706,383.80212,461.67487,383.57114,461.25928C383.29398,460.7744,383.01672,458.8579,382.48514,454.07825C382.41577,453.50104,382.20792,452.69287,382.00003,452.27722C381.81525,451.83862,381.6073,450.52246,381.53787,449.27557C381.49158,448.05176,381.3298,446.82797,381.21436,446.57407C381.12195,446.32004,380.98325,445.027,380.93692,443.68777C380.89063,442.34854,380.7288,440.87082,380.5902,440.36282C380.4516,439.8779,380.40536,439.34677,380.4746,439.18515C380.56696,438.88504,382.2525,438.44608,384.21518,438.21494C384.79245,438.14566,385.39276,437.93777,385.57745,437.7761C385.78137,437.55173,386.4717,437.47144,388.42804,437.47144 Z M307.88913,447.88358C308.1798,447.88358,308.592,448.01663,309.07993,448.26752C309.9574,448.70612,310.3269,449.2141,310.35004,449.8606C310.3501,450.1608,310.44244,450.39166,310.58096,450.39166L310.58102,450.39166C310.69647,450.39166,310.81195,450.55328,310.81198,450.73804C310.81198,450.9227,310.90436,451.08435,311.04282,451.08435L311.0429,451.08435C311.15836,451.08435,311.55096,451.68463,311.8974,452.4004C312.24384,453.13922,312.63644,453.80884,312.72882,453.87805C312.84427,453.9704,312.8674,454.24756,312.77512,454.5246C312.65967,454.91718,312.72894,455.00952,313.1215,455.00952L313.12167,455.00952C313.4679,455.00952,313.62952,455.19424,313.72192,455.70215C313.81433,456.07153,313.9529,456.39478,314.06836,456.39478C314.1838,456.39478,314.27618,456.51025,314.2762,456.6488C314.2762,456.78735,314.43787,457.0644,314.64572,457.24908C314.87668,457.47998,314.94592,457.8263,314.87674,458.17273C314.76132,458.58832,314.85367,458.77307,315.26935,458.9577C315.54642,459.0962,315.91592,459.5349,316.07758,459.92743C316.2624,460.34308,316.49335,460.851,316.6088,461.05878C316.72427,461.28967,316.81668,461.6822,316.8167,461.93622C316.81674,462.2133,316.97836,462.39795,317.1861,462.39795L317.1862,462.39795C317.44022,462.39795,317.5326,462.5365,317.44028,462.83667C317.371,463.15997,317.4865,463.3216,317.87903,463.41388C318.17923,463.50623,318.43326,463.714,318.4333,463.9218C318.4333,464.1065,318.71045,464.72998,319.03378,465.28412C319.40332,465.9536,319.56497,466.48474,319.47263,466.7849C319.3572,467.15442,319.42654,467.2467,319.8191,467.2467L319.8192,467.2467C320.1193,467.2467,320.37326,467.45453,320.5118,467.84692C320.6504,468.1933,320.97372,468.77057,321.22775,469.1399C321.5049,469.5094,321.66653,469.99426,321.59732,470.2483C321.52808,470.54846,321.64355,470.71002,322.0361,470.80237C322.3363,470.8947,322.5903,471.10254,322.59033,471.28723C322.59036,471.65668,323.5142,473.3191,323.7913,473.4345C323.8836,473.48065,323.97598,473.64227,323.976,473.80396C323.97604,473.9655,324.1839,474.3581,324.46103,474.6582C324.71503,474.95837,325.10767,475.5125,325.29242,475.90503C325.5003,476.27448,325.80048,476.71313,325.96213,476.89783C326.1469,477.05945,326.28546,477.47504,326.2855,477.7752C326.28552,478.04617,326.35043,478.23602,326.453,478.23602C326.4728,478.23602,326.49402,478.22894,326.51645,478.214C326.5303,478.2057,326.54645,478.2017,326.56454,478.2017C326.69736,478.2017,326.93393,478.41702,327.11688,478.72186C327.32474,479.06818,327.69424,479.64545,327.9252,479.99176C328.1792,480.33807,328.36398,480.82294,328.364,481.10004C328.36404,481.354,328.45645,481.56183,328.59497,481.56183L328.595,481.56183C328.94138,481.56183,329.9805,482.78546,329.98056,483.22418C329.98056,483.45514,330.09604,483.63977,330.21152,483.63977C330.3501,483.63977,330.581,483.9168,330.74268,484.26318C330.8813,484.63263,331.2046,485.11743,331.4355,485.37146C331.6664,485.62537,332.12836,486.29498,332.4517,486.8722C332.79807,487.4494,333.30615,488.16516,333.60635,488.4884C334.2299,489.15802,334.253,489.31958,333.81433,489.7815C333.5979,489.98444,332.39868,490.11612,331.44254,490.11612C330.76666,490.11612,330.21222,490.05032,330.2122,489.89734C330.2122,489.80493,329.35782,489.64343,328.29562,489.57428C326.33295,489.41284,324.9013,489.06665,324.90128,488.72028C324.90128,488.628,324.50867,488.48938,324.0238,488.42023C322.52286,488.18945,320.39853,487.7279,320.28305,487.56628C320.21375,487.497,319.82126,487.28925,319.40564,487.12762C319.01306,486.94293,318.6667,486.73523,318.6667,486.64282C318.66666,486.55048,318.27408,486.41193,317.78915,486.3427C316.0343,486.0658,315.38773,485.88123,315.27225,485.58105C315.20297,485.3733,314.78754,485.25787,314.18744,485.25787L314.1864,485.25787C313.49405,485.25787,313.1247,485.1425,312.89383,484.7962C312.68604,484.51917,312.29355,484.33453,311.85495,484.33453L311.85443,484.33453C310.90762,484.33453,309.12997,483.7806,309.0145,483.4574C308.9683,483.29578,308.6219,483.18036,308.22937,483.18036L308.22903,483.18036C307.39798,483.18036,306.93622,482.7417,306.75143,481.81824L306.58975,481.10242L304.2345,481.10272L304.2311,481.10272C301.87796,481.10272,300.5167,480.84885,300.07813,480.29498C299.93958,480.13336,299.50085,479.9256,299.0852,479.85632C298.69266,479.76404,298.34628,479.57935,298.34625,479.46387C298.34625,479.34845,298.1384,479.25616,297.86133,479.25616L297.86118,479.25616C297.60718,479.25616,297.23785,479.0945,297.0531,478.9099C296.84534,478.7252,296.49905,478.5636,296.2451,478.5636L296.24493,478.5636C296.014,478.5636,295.80615,478.40204,295.80615,478.21735C295.80612,478.0326,295.6445,477.8709,295.45975,477.8709L295.4597,477.8709C294.9978,477.8709,293.26608,477.1092,293.26605,476.90137C293.26605,476.80902,292.89664,476.67053,292.4579,476.57825C292.01913,476.50903,291.5804,476.3474,291.51114,476.232C291.44186,476.11658,291.18784,476.02423,290.93384,476.02423L290.93362,476.02423C290.70282,476.02423,290.49515,475.93185,290.49512,475.81647C290.49512,475.701,290.26416,475.51636,289.964,475.42395C289.3405,475.23926,288.46298,474.3158,288.18582,473.5769C288.07034,473.27686,287.70084,472.97662,287.3545,472.88434C287.00812,472.79193,286.54623,472.5381,286.31534,472.3072C286.06137,472.05316,285.66876,471.86853,285.41476,471.86853L285.41452,471.86853C285.16064,471.86853,284.95294,471.7762,284.9529,471.6377C284.9529,471.52222,284.58344,471.36066,284.14474,471.26837C283.68292,471.1991,283.03635,470.82977,282.68994,470.46033C282.34357,470.0909,281.99722,469.79083,281.90482,469.79083L281.9048,469.79083C281.78934,469.79083,281.53534,469.60608,281.30438,469.37524C281.05035,469.16742,280.6347,468.79803,280.3576,468.56714C279.71097,468.05927,279.82642,467.68976,280.70386,467.4126C281.07324,467.274,281.4658,467.04303,281.5581,466.8814C281.65048,466.69666,281.90442,466.55817,282.0661,466.5581C282.2508,466.5581,282.4124,466.46576,282.41238,466.35028C282.41238,466.25793,282.78177,465.77295,283.2205,465.3111C284.02853,464.45667,284.0285,464.4336,284.0283,462.28613C284.0281,460.66986,283.9357,460.0464,283.68167,459.7693C283.1736,459.2845,283.24286,459.09973,284.051,458.73022C284.37814,458.58295,284.8212,458.50525,285.33908,458.50525C285.55222,458.50525,285.778,458.5184,286.01364,458.5453C286.3205,458.5745,286.55798,458.5898,286.73932,458.5898C287.13107,458.5898,287.26056,458.51825,287.26053,458.3604C287.2605,458.1526,287.7454,457.94476,288.64587,457.75995C289.40787,457.62128,290.03128,457.39032,290.03128,457.29797C290.03128,457.18256,290.26215,457.09015,290.5392,457.0901C291.11652,457.09003,293.31003,456.37396,293.4947,456.12C293.564,456.05072,293.9103,455.88898,294.25665,455.81976C294.6261,455.72736,294.97244,455.49634,295.0417,455.33472C295.11096,455.14996,295.45728,455.0114,295.80362,455.0114C296.15,455.01135,296.70416,454.75726,297.02737,454.4571C297.51413,454.01257,298.4858,453.56802,298.9646,453.56802C299.00818,453.56802,299.04767,453.57172,299.08234,453.5794C299.097,453.58234,299.11093,453.58377,299.12405,453.58377C299.21426,453.58377,299.26706,453.51566,299.26703,453.3947C299.26703,453.2561,299.4748,453.16376,299.72885,453.16376C299.9828,453.1637,300.1906,453.04816,300.19058,452.93274C300.19055,452.56335,301.06787,451.77808,301.46045,451.77808C301.66824,451.778,302.08386,451.524,302.40707,451.20074C302.73032,450.87744,303.23828,450.55408,303.53848,450.4848C303.8617,450.41547,304.11566,450.25385,304.11563,450.13843C304.11563,450.02295,304.2773,449.9306,304.4851,449.93054C304.69293,449.93054,305.1778,449.6303,305.5241,449.23767C305.8935,448.86823,306.44763,448.49872,306.77087,448.40625C307.09418,448.33704,307.41742,448.17535,307.48666,448.05988C307.55984,447.94092,307.6983,447.88358,307.88913,447.88358 Z M330.79144,491.25958C331.13678,491.26,331.3669,491.3984,331.3669,491.58282C331.36694,491.75815,331.51,491.8344,331.95572,491.8344C332.1556,491.8344,332.41635,491.81906,332.75235,491.79047C333.02557,491.765,333.26904,491.75183,333.4905,491.75183C334.07388,491.75183,334.50446,491.8434,334.92288,492.0442C335.36166,492.25195,335.82346,492.41357,335.96198,492.41357C336.10056,492.41357,336.21606,492.73676,336.2161,493.12927C336.21616,493.62646,336.20502,493.77832,335.91193,493.77832C335.78305,493.77832,335.59964,493.74893,335.33868,493.70667C334.87692,493.61438,334.04562,493.4759,333.49142,493.40668C332.96036,493.33746,332.5216,493.1759,332.5216,493.08356C332.52158,492.9681,332.36005,492.8758,332.15234,492.8758L332.15213,492.8758C331.94434,492.8758,331.43628,492.71423,330.9976,492.50647C330.0283,492.04495,329.9123,491.2606,330.78812,491.25958 Z"/> </g> </g> </svg>