<?xml version="1.0" encoding="UTF-8"?>
<svg viewBox="0 0 492 597" xmlns="http://www.w3.org/2000/svg">
  <g stroke="#fff" stroke-width=".70008px" fill="#fff">
    <path d="m247.88 10.004c-36.791 0.0608-74.282 8.3383-107.44 23.585-42.968 21.467-70.857 55.726-85.843 96.75l-12.538 7.927c-6.8129 4.31-11.492 14.305-10.468 22.389l14.787 116.8c0.3954 3.13 1.6029 5.499 3.2999 6.982 0.3753 1.638 0.7707 3.276 1.17 4.904-4.7502 12.804-13.621 18.606-22.107 25.08l1.0203 3.686c23.449 4.993 47.07 7.235 70.818 7.07 1.793 3.013 3.239 5.304 3.239 5.304l10.467 17.367c0.95 22.106 2.332 22.876-3.782 35.592-1.075 2.242-9.719-7.587-10.914-5.451-7.0912 12.637-7.5424 43.587-21.507 64.084-20.159 27.518-40.309 61.071-60.469 94.215-5.8207 11.536-8.5093 26.26-8.608 43.607 50.876-21.277 91.478-78.896 188.55 0 38.758 16.889 77.506 16.002 116.26 0-9.723-21.696-21.75-44.962-27.48-63.957 2.765-4.525 6.498-9.332 11.672-14.812v-21.336l4.405-6.913 3.033 7.742c11.854 2.887 23.718-2.954 35.572-8.015l-5.702-19.961c21.088 6.904 36.762 13.759 61.189 11.614 9.484-1.872 9.061-3.374 15.665-8.172 6.287-5.675 12.986-12.374 10.462-24.251l-8.187-28.551c2.255-5.139 4.482-10.307 7.496-15.056 13.178 7.06 27.96 15.329 40.975 15.719l2.313-4.115c-16.807-12.276-29.198-18.829-47.003-23.763l1.498-0.888 6.21-4.69c-4.128-7.303-9.205-9.039-6.604-29.224l26.251-7.489c6.23-2.935 8.399-12.784 6.537-21.881l-40.946-58.605 8.158-13.524-2.006-6.914c19.936 1.424 40.063-3.764 60.738-14.266l3.417-4.515c-14.897-2.818-29.476-6.308-40.764-16.479 2.016-30.423-11.911-51.466-19.254-73.952-25.915-79.449-98.248-113.76-173.58-113.64l-3e-3 0.00393z" fill-rule="evenodd"/>
    <rect x="211" y="54" width="64" height="64" fill="white" stroke-dasharray="null" stroke-linecap="null" stroke-linejoin="null" stroke-opacity="null"/>
    <rect x="247" y="56" width="54" height="54" fill="white" stroke-dasharray="null" stroke-linecap="null" stroke-linejoin="null" stroke-opacity="null"/>
  </g>
</svg>
